<svg xmlns="http://www.w3.org/2000/svg" viewBox="140 24 828 995"><g fill="none" stroke="#4C1D03" stroke-width="2"><path d="M346.24 802.82a.42.42 0 0 1 .24.72q-11.89 11.67-24.23 21.33c-7.69 6.03-14.12 11.56-19.64 16.98-6.53 6.39-11.71 11.52-11.94 20.39a.45.45 0 0 1-.67.38c-3.93-2.19-7.3-4.59-10.34-8.23-8.2-9.8-19.6-23.94-34.01-22.74-9.02.75-16.64 7.03-15.05 16.86q.33 2.05 1.79 6.33c.98 2.9-1.96 3.78-4.04 3.75q-9.7-.13-13.35.04a7.63 7.23 48.7 0 1-1.95-.18c-4.74-1.1-11.19-1.74-15.54.42-11.17 5.55.15 16.35 5.8 22.82q1.67 1.92 2.23 3.65a.86.86 0 0 1-1.24 1.01q-7.35-4.1-12.75-6.86-14.8-7.58-31.05-6.42-6.7.47-9.38 6.01c-3.72 7.67 8.43 14.91 13.89 17.18q2.86 1.19 12.54 4.79a.63.62 44.2 0 1 .02 1.17c-3.16 1.24-6.02 2.38-8.31 4.37-2.82 2.47-5.4 8.85-3.23 12.35 4.18 6.75 17.79 6.45 25.56 6.67 4.97.15 9.51 1.38 14.66 1.88a22.73 21.97 55.4 0 1 4.56.92c13.66 4.26 27.27 8.94 39.73 9.06q7.21.07 8.1.1a.63.62-85.4 0 1 .6.71q-.49 4.04 1.44 6.26c1.92 2.22 6.88 6.91 8.48 10.93a.45.45 0 0 1-.5.61q-5.04-.88-12.43-1.7c-10.42-1.15-24.26 1.24-31.84 8.03-3.38 3.03-2.6 7.11.4 10.12q2.84 2.85 8.21 4.52c8.45 2.61 13.64 4.14 21.83 4.75q11.83.89 21.13 1.01a.44.44 0 0 1 .35.7q-1.97 2.7-4.08 4.86c-4.84 4.94-6.61 11.5-.84 16.22q2.18 1.79 4.17 1.46 1.08-.18 12.98-3.28c4.12-1.07 8.09-1.24 12.16-2.56a1.82 1.71 34.2 0 1 .56-.09l18.1.1a1.78 1.62-33.6 0 1 .52.08q2.52.77 5.03 1.22 2.69.49 4.62 1.17 3.8 1.36 14.2 4.34 6.83 1.95 13.15 1.21c6.24-.73 11.76-3.94 18.11-7.51 15.18-8.54 28.72-17.65 40-29.57a1.9 1.9 0 0 1 1.57-.59q8.58.85 20.71.42c3.59-.13 6.47-1.8 9.49-2.26q2.62-.39 4.06-.9 7.46-2.63 13.03-4.4c11.33-3.61 19.7-8.74 30.01-15.41q5.06-3.27 11.76-8.65 21.54-17.27 45.64-37.35 16.8-13.99 35.15-26.85 8.56-5.99 16.25-9.57c2.71-1.26 6.46-1.53 8.93-.98q7.26 1.61 19.91 5.35c13.28 3.92 23.84 7.03 35.75 8.99 6.17 1.01 10.16-.61 14.72-4.75q5.85-5.32 13.97-13.51 1.54-1.55 4.74-4.27 16.88-14.34 59.09-49.91 4.13-3.48 8.7-6.98c6.35-4.85 10.92-9.42 17.47-14.64q3.57-2.84 8.73-7.69c4.77-4.48 11.28-9.65 16.28-14.91 5.15-5.4 10.08-9.85 14.46-14.97q6.75-7.91 15.37-19.26c4.61-6.06 7.21-11.95 7.6-18.36q.19-3.11.18-14.46 0-5.07 1.38-7.16a1.47 1.45-38 0 0 .16-1.25q-1.79-5.35-1.7-7.58.51-12.23-.52-41.25-.51-14.33-.41-44.68c.11-33.98-.02-54.44.2-91.58q.05-7.87-.37-16.19c-.81-16.05-.99-30.18-.79-47.53a.51.5-11.2 0 1 .32-.47q4.17-1.62 8.96-4.27c11.8-6.52 23.6-13.07 34.6-21.04q.58-.42 14.16-10.21c17.55-12.65 32.74-30 41.15-49.8q18.44-43.41 16.54-90.24-.75-18.56-5.03-34.01-6.43-23.25-19.54-45.88-16.31-28.13-39.58-50.13-10.34-9.78-27.05-19.98c-5.15-3.15-10.44-5.07-15.97-7.96q-4.92-2.57-12.35-5.1-17.21-5.88-34.39-8.55c-6.24-.96-13.7-1.55-19.34-1.31-18.72.79-35.53 7.51-51.85 17.09a1.15 1.14 63.7 0 1-1.64-.56q-2.15-5.31-6.21-10.8-5.15-6.95-13.24-15.86-18.86-20.76-45.09-32.11-18.33-7.92-38.2-11.32-18.58-3.18-35.96-1.15c-37.92 4.41-70.72 28.31-84.79 64.13q-2.5 6.37-2.9 13.41a.48.47-84.9 0 1-.53.45q-18.24-2.27-37.09 2.73-8.13 2.15-18.4 6.96-14.03 6.58-17.78 8.53c-12.18 6.33-21.05 15.43-29.3 26.41q-2.24 2.99-6.87 7.7-18.98 19.36-29.64 28.81c-13.65 12.09-25.7 21.91-37.39 33.65-9.68 9.71-20.65 19.38-29.34 30.17q-22.62 28.1-33.77 59.29-5 13.99-7.21 29.59c-1.65 11.64-2.58 22.7 1.23 33.31q1.16 3.24 2.92 5.36 4.62 5.55 10.14 10.59c7.67 6.99 17.36 10.78 27.87 14.2 7.4 2.4 14.31 6.18 22.1 9.03q7.63 2.78 14.22 3.88c8.46 1.41 18.61 3.53 22.46 4.24a.32.32 0 0 1 .09.6c-16.48 8.53-23.28 22.96-25.49 41.06-1.69 13.83 1.09 31.17 11.77 40.58q4.41 3.9 8.69 4.86 2.84.64 4.96 1.11a2.53 2.46-43 0 0 .99.02q7.24-1.44 8.35-2.16 8.06-5.19 11.21-6.81 10.61-5.45 28.34-13.58c9.96-4.56 17-8.58 26.43-13.62a.75.74 53.8 0 1 .88.14q5.17 5.31 10.7 1.69a.41.41 0 0 1 .64.37c-.86 14.6-1.56 27.44-.75 42.56.9 16.61 2.03 35.29 2.2 51.51.16 15.28.59 27.51-.17 40.95q-.09 1.59-.09 1.82c-.08 4.71-3.77 6.25-7.86 8.21-9.46 4.55-20.61 9.04-31.22 14.23q-47.44 23.23-76.2 37.09-7.75 3.73-19.91 8.83c-10.3 4.32-17.76 8.98-21.78 19.7q-1.86 4.96-1.87 17.73-.01 15.19 0 18.19.01 5.56-.79 11.21-.53 3.7-.44 11.24.07 5.35 1.06 8.72 1.73 5.81 3.14 8.32c2.58 4.58 7.73 7.72 12.22 9.98q7.67 3.87 15.21 6.96 3.91 1.59 11.47 2.75 10.05 1.54 11.73 1.75" vector-effect="non-scaling-stroke"/><path d="M656.01 133.73a.46.46 0 0 0 .35.77h47.48a1.81 1.79 21.7 0 0 1.3-.55q11.23-11.71 21.65-20.15 1.44-1.17 3.03-2.51a.75.75 0 0 0 .23-.81q-3.77-11.09-10.37-18.43-11.21-12.45-14.84-15.65-13.22-11.64-28.6-19.11c-25.13-12.22-53.9-19.16-81.38-15.38q-16.76 2.31-33.96 11.05c-7.22 3.66-13.98 9.22-20.53 14.9q-4.47 3.88-8.23 9.01c-8.48 11.58-13.97 21.99-17.12 36.52a1.4 1.38 30.9 0 0 .31 1.21c2.88 3.31 5.68 8.8 10.17 11.18q10.01 5.31 14.61 8.04a3.36 3.33 58.5 0 0 1.85.45c2.26-.11 5.12-.83 8.4-.96q15.27-.56 29.62-.75a.42.42 0 0 0 .35-.64q-4.64-7.35-3.8-16.77c.4-4.45 5.45-4.62 6.21-.35 1.16 6.49 3.24 14.51 10.75 15.89 2.1.38 2.64.7 4.44 1.43a8.37 8.34 57.4 0 0 2.72.6q5.94.29 12.91 1.13c9.8 1.19 16.33.81 29.19.85q2.29.01 4.01-1.39 11.29-9.19 11.53-23.59c.04-2.05 2.58-5.63 4.9-3.45 2.41 2.28 1.91 7.83 1.22 10.97q-2.03 9.28-8.4 16.49M809.19 148.13a.38.38 0 0 0 .34-.61q-.21-.27-.68-.42-10.81-3.32-19.96-4.16c-7.31-.67-10.31-1.15-17.19-1.36-28.85-.89-50.36-.63-78.83-.74-24.43-.09-52.93.77-78.37-.03-4.25-.14-10.1-1.71-15.03-1.63-11.04.18-25.95-.9-38.95-.5q-14.9.46-18.78.36t-11.4 1.05q-7.73 1.18-15.65 1.24-3.39.03-5.38-.27-4.04-.6-5.39-.33-.64.12-6.53-1.1-3.1-.64-7.02-.22c-10.14 1.09-19.39 3.81-27.36 10.28a1.04 1.01-47.5 0 0 .05 1.65q.32.22.89.07 2.54-.65 6.29-1.16a8.95 8.59 44.9 0 1 2.73.05c3.4.59 5.93.87 8.83.94 28.86.66 61.36-.08 92.6-.02q68.2.12 76.35.28c14.56.28 24.22.78 36.66.66q15.49-.15 29.58.54 1.6.08 5.19-.92a9.77 9.55 35.9 0 1 2.35-.35c4.37-.12 13.39.18 19.43-.71 8.35-1.22 14.13-1.44 21.42-2.45 5.49-.76 9.74-.7 15.54-1.25 9.04-.85 17.72.04 28.27 1.11M727 158.5a.51.51 0 0 0-.39.83c7.68 9.63 6.61 23.37 2.72 34.48-5.26 15.05-11.85 29.18-18.54 43.7-6.64 14.4-10.46 25.67-16.7 43.69q-5.86 16.93-8.82 23.28-5.42 11.64-11.7 22.02a.52.52 0 0 0 .3.77q1.87.55 3.56 1.73a4.13 4.11-22.3 0 0 1.68.7c10.61 1.96 16.15 4.94 28.15 10.57q5.9 2.78 13.47 7.5 16.01 10.01 31.93 23c6.2 5.06 11.47 10.54 18.3 17.02q2.11 1.99 3.17 2.7a1.42 1.42 0 0 0 1.41.09c2.97-1.47 7.41-4.27 10.78-6.66 19.54-13.85 30.51-20.93 42.88-32.72q4.68-4.46 7.08-7.96 2.21-3.24 2.14-8.23c-.28-19.98-.71-36.92-.24-52.66a4.06 3.74-38.5 0 1 .16-1.03l1.28-4.52a1.8 1.8 0 0 0 .07-.49q.1-7.45.25-14.86c.03-1.34-.58-2.6-.1-3.65q.45-.97.47-2.69c.25-18.78.69-33.86-.35-51.72-.3-5.05-1.69-9.12-1.98-14.02q-.16-2.54-1.25-7.65c-1.31-6.18-2.63-18.15-8.7-20.99-7.62-3.55-13.9-4.87-23.17-6.57q-4.99-.92-10.77-.92-11.59 0-17.34.19c-4.3.15-8.56 1.19-12.33 1.46q-5.96.43-14.54 1.58-13.35 1.78-22.88 2.03" vector-effect="non-scaling-stroke"/><path d="M719.49 160.67q-3.39-1.22-5.01-1.35c-3.51-.29-6.47-1.23-10.18-1.23-14.1.02-31.61.23-48.39-.1q-55.47-1.11-134.61-.44-25.02.21-48.74-.28c-7.29-.15-20.21 1.63-24.09 8.22-4.44 7.57-8.99 16.13-12.52 24.54-6.32 15.02-11.55 27.02-16.78 41.82q-16.66 47.11-20.6 58.7-4.97 14.6-6.09 21.63-.93 5.84-.6 11.18.42 6.6 6.42 8.14 7.4 1.91 7.54 1.94a19.11 18.45-35.9 0 0 3.23.46q6.78.39 10.72 1.11c7.75 1.4 16.82.84 23.54.74a7.3 7.16 37 0 0 1.69-.22q6.66-1.68 19.48-1.81 4.14-.05 12.37-.9c11.47-1.19 18.85-.22 35.13.7 15.33.87 39.57-1.99 59.33-1.23q9.6.37 30.92-.58 7.56-.34 48.49.03c12.52.11 17.6-7.62 22.91-17.33q5.65-10.31 9.44-21 9.57-26.94 13.8-39.6.81-2.43 2.34-6.03c6.88-16.2 14.83-32.25 20.97-48.07q3.27-8.41 4.67-15.58c1.67-8.59 1.14-15.46-4.33-22.68a2.37 2.34-8 0 0-1.05-.78M844.88 328.91q.57-.15.97-.85c7.73-13.37 7.3-25.71 6.16-42.68-.37-5.65-3.61-10.58-7.02-14.94a.28.28 0 0 0-.43-.01q-.2.22-.2.48-.3 19.03.03 57.63a.39.39 0 0 0 .49.37" vector-effect="non-scaling-stroke"/><path d="M396.31 279.32a.35.34-38.4 0 0-.56-.06q-5.38 6.03-10.97 10.86c-3.69 3.19-6.27 6.48-8.26 10.15-4.09 7.54-8.13 15.88-9.08 23.77q-1.02 8.42.08 15.75 1.44 9.53 7.22 21.32c4.65 9.49 13.75 16.8 22.39 23.02 4.37 3.14 10.49 4.76 14.75 6.73 5.7 2.66 6.84 5.15 8.01 10.61.85 4.01 5.46 8.33 9.88 6.76q9.24-3.28 15.68-5.27 1.9-.59 4.07-.83a1.07 1.06-8.5 0 0 .93-1.25q-1.91-10.19-2.28-21.88-.6-18.43 1.22-36.78a.78.77-88.7 0 0-.81-.86q-7.83.42-17.57.5c-8.1.07-15.04-1.39-22.9-1.99-4.15-.31-9.95-1.67-13.1-2.95-9.37-3.8-9.87-11.82-9.25-21.13q.35-5.33 2.34-11.71 4.76-15.29 8.24-24.31.09-.22-.03-.45M293.89 320.27q-6.87 5.61-9.49 14.06-1 3.2 1.54 3.74 3.26.69 7.46 2.97.75.41 2.06.58a.48.48 0 0 0 .44-.77q-2.72-3.51-3.92-7.44a2.77 2.76-50.6 0 1-.1-1.04q.57-6.52 2.57-11.69a.36.36 0 0 0-.56-.41M886.85 378.58c6.59-1.44 14.2-6.29 19.91-10.06 3.66-2.42 7.5-5.72 8.15-10.1.43-2.92 1.52-6.19 1.59-8.96.05-2.04-1.13-9.24-4.35-10.1a.99.99 0 0 0-1.24.87c-.83 9.73-6.09 17.37-12.58 24.35q-.36.38-12.32 12.47a.91.91 0 0 0 .84 1.53M496.18 385.21q-7.78-7.01-6.69-17.95.72-7.11 2.34-13.55a.64.63-78.3 0 0-.51-.79c-7.27-1.17-10.85-6.95-14.22-12.9a1.05 1.05 0 0 0-.96-.53l-20.55.79a.66.66 0 0 0-.63.67c.13 11.03-1.33 24.43-.48 36.05q.91 12.54 2.24 21.69a.74.74 0 0 0 1 .58q17.69-6.97 38.14-12.69a.81.8 58.3 0 0 .32-1.37M458.19 620.7c4.23-.06 6.75-.3 10.81.38q19.47 3.23 38.95 6.97a.41.41 0 0 0 .49-.4v-36.58a2.12 2.09-28.1 0 1 .37-1.19c5.12-7.25 10.57-11.1 19.54-13.76q8.58-2.54 11.41-3.07 8.56-1.62 9.31-1.97a2.63 2.52 28.8 0 1 .89-.24q9.13-.9 13.05-1.24c9.65-.83 19.31 1.83 29.11 5.04 6.36 2.07 16.28 7.26 18.35 13.86q2.67 8.55 2.55 16.9a.98.97-12.4 0 0 1.4.89q10.22-5 21.47-1.34c10.46 3.39 15.47 14.74 15.53 25.09q.08 14.05-7.21 26.38a.47.47 0 0 0 .37.7c4.1.33 9.42.67 14.58 1.78 14.53 3.1 28.73 6.97 42.55 9.7 13.49 2.66 24.63 5.05 37.09 6.02 3.86.3 7.33 1.48 11.02 1.75q3.73.26 8.23 1.23 2.05.44 8.25 1.08 2.59.27 15.81 2.8 5.5 1.05 11.11 3.14 2.12.78 11.07 3.26a.63.62-80.9 0 0 .79-.58q.45-14.3.58-32.07c.02-3.42.42-5.1 1-8.92a.57.57 0 0 0-1-.45l-10.12 12.59a.73.62-83.4 0 1-.16.15c-4.01 3.09-7.58.34-11.12-.87-5.11-1.74-8.88-4.55-8.8-10.48q.08-6.92.11-24.5 0-1.76-.88-9.01c-1.15-9.39-1-16.84-1.31-31.7q-.27-12.99.16-25.7.36-10.8 2.33-25.6 2.1-15.78 3.18-23.34.67-4.72.56-7.32c-.25-6.1-.54-9.43.42-13.87a6.95 6.86-14.5 0 1 2.27-3.79q7.52-6.42 14.7-14.61c2.51-2.86 4.59-3.84 8.23-3.23q8.52 1.42 11.33 9.28a5.83 5.78-55.4 0 1 .34 1.9q.05 9.16.2 13.23c.17 4.7-.33 9.09-.19 14.01.24 8.77-1.13 20.25-.63 27.26q1.02 14.35.81 25.24-.13 7.1-.91 20.94c-.64 11.32-.43 22.17-.72 31.28-.18 5.56.93 10.53 1.3 16.03q.38 5.53-.06 8c-1.55 8.77-3.29 15.74-3.37 23.67q-.03 4.17.05 22.41c.03 6.91-.34 13.23-.57 19.99a5.98 5.67 56 0 1-.24 1.44c-2.35 7.84-9.62 14.64-15.91 18.9-4.33 2.93-8.7 5.5-12.75 8.65-7.13 5.55-10.34 8.17-17.89 13.52q-4.47 3.18-11.68 8.75-7.68 5.94-28.97 20.39c-6.77 4.6-13.22 9.49-19.18 13.49q-6.23 4.17-13.99 10.61-11.45 9.49-14.08 12.04-1.55 1.5-1.73 3.5-.47 5.26-.03 10.04.84 9.24.78 10.01c-.4 4.58.37 9.95.32 15.13q-.1 9.98.7 23.94a.7.7 0 0 0 1.2.45q10.21-10.54 21.01-19.5 10.93-9.07 15.3-12.87 34.49-30.04 58.45-49.69 17.33-14.21 29.37-25.12 16.96-15.35 30.5-34.25c3.26-4.54 7.52-10.48 7.91-15.76.82-11.34 1.12-23.56.26-35.24q-.45-6.06-.44-11.5.1-36.84-.56-70.91c-.15-7.71.39-19.43.5-26.3q.6-38.09 0-88.04-.06-4.4-.58-9.01c-1.09-9.67-.98-19.48-.94-29.18a.38.38 0 0 0-.56-.33c-6.54 3.53-15.49 5.83-20.5 7.28q-41.94 12.19-91.35 21.45c-7.69 1.44-13.65 2.96-19.73 6.96-7.51 4.94-18.87 11.93-24.76 2.04-1.46-2.46-1.47-5.05-1.72-7.76a.47.46 71.9 0 0-.7-.36c-15.98 9.77-29.36 24.3-35.94 41.73-2.44 6.46-3.99 11.85-9.09 15.76-3.83 2.93-8.07 3.07-10.77-1.1-7.71-11.93 4.57-30.37 11.66-41.79q1.35-2.19 1.93-3.79a.81.81 0 0 0-.96-1.06q-3.1.77-5.7 2.61-5.48 3.88-10.87 7.87c-3.26 2.41-9.14 4.37-11.06-.59-1.7-4.4 3.48-10.99 6.51-13.98l15.1-14.87q.67-.66 1.31-2.08a.68.68 0 0 0-.8-.94q-8.18 2.27-15.62 3.39-9.89 1.49-16.22-5.21-2.82-2.99-1.23-6.48c3.2-7.02 11.54-7.74 18.65-8.35q3.61-.32 12.56-2.95 7.16-2.11 12.87-7.04a.64.63 57.6 0 0 .16-.75q-.92-2.04-2.85-3.42c-3.96-2.84-7.88-5.72-7.81-10.35.09-5.1 5.07-8.32 9.66-8.92q7.36-.96 14.27 2.97 9.53 5.43 13.05 6.99a1.42 1.37-27.4 0 0 .4.12l15.43 2.67a1.99 1.99 0 0 0 2.28-1.57c1.73-8.46 9.3-15.75 18.53-15.02q25.81 2.02 51.82-5.11 3.97-1.08 7.47-3.22a.7.7 0 0 0 .17-1.06q-4.7-5.44-10.75-10.77c-19.24-16.96-41.76-32.04-65.36-39.71q-3.61-1.18-14.18-3.05-6.76-1.2-14.45-1.09-18.19.25-18.46.27a.96.94-76 0 0-.76.47c-2.18 3.82-5.62 7.07-9.3 10.4a.68.66-38.2 0 0-.11.86c.84 1.28 1.59 2.64 1.4 4.4-.82 7.59-3.64 14.82-7.66 22.05-4.08 7.34-10.77 12.81-18.06 16.04a.99.99 0 0 0-.57.69q-3 12.69-7.62 24.49-3.74 9.55-12.22 15.74a5.59 5.53 18 0 1-1.69.85q-10.3 3.14-17.13 2.43-6.99-.74-25.06-2.89c-6.19-.74-12.79.28-18.48-.49q-3.17-.43-4.65-.45a2.75 2.71 29.8 0 0-1.48.39q-2.97 1.76-17.22 9.99-3.65 2.11-10.61 4.62-2.71.98-3.39 2.96-2.8 8.22-8.33 14.15a.54.54 0 0 0 .05.79c3.16 2.59 3.21 9.76 3.09 13.87-.43 15.1-.87 21.32.25 32.44q.56 5.54.39 13.16c-.23 10.44 1.37 24.36.98 32.85q-.51 11.12.16 16.75.88 7.48.91 14.49c.01 2.43-1.47 15.91-7.33 9.53q-2.74-2.99-2.87-7.28-.11-3.57-.09-3.73 1.81-13.08 2.09-23.7.21-8.18-1.86-28.58c-.19-1.96-.08-5.78-.34-8.32q-1.53-14.74-1.56-15.06c-.46-4.41-.26-8.26-.79-12.44-1.22-9.48-.44-20.42.54-29.14a.54.54 0 0 0-.52-.6q-1.01-.04-2.69.21-8.49 1.29-10.06-6.82a.39.39 0 0 0-.7-.14l-2.64 3.95a1.98 1.92 62.6 0 0-.33 1.09q.06 13.96-.84 27.9-.63 9.79.01 18.95.82 11.77.75 14.36c-.17 5.75 1.08 10.4.99 16.26q-.05 3.42.36 11.11 1.43 26.96.71 57.94c-.03 1.25-.46 1.79-.66 2.72a.61.61 0 0 0 .6.74" vector-effect="non-scaling-stroke"/><path d="M498.53 355.11a.35.35 0 0 0-.34.23c-2.19 6.48-5.46 22.89 3.56 25.66q1.92.6 3.72 2.06a1.07 1.06-36.9 0 0 1.07.15c4.16-1.77 7.77-5.16 11.3-7.29a1.92 1.91-49.1 0 1 1.72-.13q10.76 4.49 15.32 14.63a2.04 2.02 79.3 0 0 1.73 1.19q14.27.83 31.22.25 5.34-.19 9.68-.9c6.13-1.01 10.51-.64 16.12-2.01q3.38-.82 8.36-.26c13.27 1.49 23.55-19.62 24.69-30.19q.28-2.69-.39-4.18a2.47 2.47 0 0 0-2.27-1.46q-22.03.14-45.2-.3-12.58-.24-23.16 0c-14.37.33-22.25.02-30.05 1.02q-4.9.63-6.89.75-13.84.9-20.19.78" vector-effect="non-scaling-stroke"/><path d="M473.29 400.14c3.22.18 7.03-.92 10.61-.53q6.88.74 11.62 4.12c3.39 2.43 7.55 7.54 3.58 11.35-2.9 2.79-8.53 3.22-12.29 3.11a.29.29 0 0 0-.12.56c4.34 1.77 9.66 3.14 13.49 5.48q5.7 3.48 9.43 8.95a.89.89 0 0 0 1.14.29l16.64-8.61a1.39 1.35-4.4 0 0 .66-.75q5.27-14.58-1.26-29.49c-1.21-2.75-3.59-6.25-5.55-7.94-2.19-1.9-5.14-.76-8.26.16-5.84 1.71-11.83 4.22-16.32 5.41-7.06 1.88-15.18 5.32-23.42 7.39a.26.25 39.5 0 0 .05.5M397.8 395.29l15.29 7.43a.05.05 0 0 0 .07-.02l.02-.06a8.45 3.53 25.9 0 0-6.06-6.86l-.17-.09a8.45 3.53 25.9 0 0-9.15-.52l-.02.06a.05.05 0 0 0 .02.06M598.7 395.88l-13.16.65a6.99 6.98 35.6 0 0-1.57.26q-3.67 1.05-5.04 1.12-19.01.96-41.14.01a.46.46 0 0 0-.47.55q1.53 7.54 1.69 8.75 1.43 10.6-2.57 19.65a.61.61 0 0 0 .57.86q6.44-.09 12.07 1.39a5.36 5.14-34.9 0 0 1.02.16l8.43.53a1.97 1.25-24 0 1 .34.05c8.26 2.12 15.3 3 23.15.02 4.7-1.78 7.46-4.63 9.23-8.91 3.42-8.26 5.87-17.49 8.26-23.99a.82.82 0 0 0-.81-1.1" vector-effect="non-scaling-stroke"/><path d="M493.35 411.22a.4.4 0 0 0 .26-.68c-4.27-4.4-8.24-4.43-14.88-4.32-8.08.13-15.63 1.12-23.21 3.5-7.49 2.35-12.57 3.09-22.19 5.27q-3.7.84-10.02-.49a3.1 3.05 69.9 0 1-1.33-.63l-5.07-4.07a.78.74-17.5 0 0-.35-.17q-6.72-1.51-11.77-4.16c-7.07-3.7-12.17-6.99-17.39-7.45a3.04 2.98-52.7 0 0-1.36.2q-6.22 2.48-9.62 8.75c-1.55 2.86-1.61 5.56 1.17 7.26q.34.2 8.26 4.21a4.88 4.83 61 0 0 1.71.5q7.81.77 13.24 7.54 8.32 10.36 17.6 24.37 3.79 5.71 14.02 15.52a.89.89 0 0 0 1.15.06q2.23-1.7 4.81-4.23c1.92-1.87 4.94-.6 5.25 1.94q.46 3.75.14 8.61a2 1.98 33.5 0 0 .22 1.06c2.71 5.09 8.8-.98 6.6-5.47a1.52 1.49 41.9 0 1-.07-1.12c.42-1.26 1.34-2.77 1.73-4.09 1.72-5.74 3.98-13.94 7.84-17.4a2.8 2.66 45.7 0 1 3.7.14c4.35 4.14 3.17 12.75 1.91 18.02a1.46 1.46 0 0 0 .96 1.72c6.11 1.99 11.78-5.65 13.51-10.63 1.75-5.07-1.03-9.06-4.23-14.18a2.33 2.28-66.8 0 1-.33-.85q-.85-4.82 2.79-6.05c7.38-2.48 15.86 2.86 22.58 3.15q1.06.04 2.34-.78a.5.49 54.8 0 0 .12-.72q-5.01-6.59-12.82-8.68-9.23-2.47-11.49-2.99c-2.46-.57-5.81-3.09-4.4-5.9q1.57-3.14 5.25-4.28 6.18-1.91 13.37-2.48M693.88 420.94q9.17 1 17.49-1.47a.8.79 61.2 0 0 .37-1.29q-2.38-2.74-4.65-5.29c-5.55-6.24-11.75 2.49-13.62 7.37a.51.5-76.5 0 0 .41.68M620.86 482.71q3.16-2.06 7.89-5.42 6.23-4.42 13.78-4.15a2.75 2.5 53.4 0 1 .71.14c4.33 1.6 4.16 6.91 2.29 10.23q-7.36 13.09-8.91 15.58-6.08 9.75-7.41 21.14-.17 1.46.06 2.12a1.86 1.58-37.5 0 0 3.01.15c3.92-4.83 5.04-9.46 8.12-16.86 7.62-18.39 23.77-33.9 41.2-43.3q8.63-4.65 14.53-7.94 4.49-2.51 16.51-6.99a1.15 1.14 88 0 0 .7-.76q2.8-9.94 1.76-20.07a1.89 1.89 0 0 0-2.66-1.53q-3.85 1.74-8.19 1.97-9.62.52-19.78-.03c-3.94-.21-7.72-1.33-11.71-1.84-6.57-.84-11.42-4.07-18.63-7.98-3.8-2.05-10.91-4.73-14.09-.69a1.03 1.02 55.8 0 0-.18.96c.92 2.9 4.58 5.5 6.87 7.56 1.98 1.78 4.2 5.51 2.89 8.11q-1.17 2.33-3.64 4.36-9.55 7.85-21.62 10.12-6.86 1.29-16.95 2.99a2.06 2.05 80.5 0 0-1.68 2.37l.13.25a.95.92-4 0 0 .51.43c5.34 1.78 11.7.87 17.04-.51 4.58-1.18 17.92-3.57 17.36 4.87-.28 4.07-2.33 5.67-5.28 9.01q-1.23 1.39-13.91 13.58-.51.49-1.23 1.64a.36.36 0 0 0 .51.49M378.21 424.26l1-1.4a.66.66 0 0 0-.15-.92l-1.61-1.16a3.19 1.37 35.8 0 0-3.39-.76l-.18.24a3.19 1.37 35.8 0 0 1.79 2.98l1.61 1.16a.66.66 0 0 0 .93-.14" vector-effect="non-scaling-stroke"/><path d="M398.26 491.97q.77-.14 1.29-.41 12.63-6.4 18.48-9.29 5.68-2.79 10.55-6.05a1.19 1.19 0 0 0 .43-1.46c-1.64-3.77-2.63-5.77-5.66-8.91q-9.37-9.74-12.91-14.81-2.25-3.21-10.04-14.42-1.34-1.93-8.22-9.95a2.53 2.52-31.4 0 0-2.86-.69l-1.61.65a1.15 1.15 0 0 0-.24 2q4.27 3.04 9.52 9.36a7.72 7.65 13.4 0 1 1.07 1.72q5.57 12.43 5.38 24.02-.24 14.56-5.92 27.31a.67.67 0 0 0 .74.93M365.27 433.74q-2.73.4-4.58 2.06-12.82 11.47-15.83 27.48-2.28 12.13-.33 23.94c1.43 8.68 7.25 19.61 16.5 21.2q5.78 1 10.8-3.29c6.38-5.44 11.51-10.69 13.6-18.54 4-15 2.69-31.88-6.75-44.77q-3.72-5.07-9.61-6.51c-1.45-.36-2.6-1.75-3.8-1.57M483.81 439.99a.34.34 0 0 0-.36.52l2.7 4.11a.94.94 0 0 0 1.14.36l5.09-2.06a.47.47 0 0 0-.06-.89l-8.51-2.04M707.59 457.35q-9.23 3.98-15.95 8.5a6.22 6.21 64.3 0 0-2.46 7.02l.08.28a4.15 4.15 0 0 0 5.87 2.44c7.14-3.7 11.06-10.15 13.08-17.71a.45.45 0 0 0-.62-.53M789.94 485.14q.75.1 1.49-.49c3.26-2.59 5.7-6.4 8.97-9.02q2.59-2.07 4.62-3.99a.79.79 0 0 0-.31-1.33l-.23-.09a1.9 1.89 30.8 0 0-2.05.51l-12.7 13.84a.34.34 0 0 0 .21.57M790.38 491.54l-3.96.16a1.27 1.27 0 0 0-1.22 1.4q.86 8.62-.03 14.41-2.46 15.87-3.68 27.14c-.24 2.17-.99 4.88-1.15 7.35q-1.7 25.1-.64 51.76c.4 10.08 1.79 23.96 1.62 34.67q-.3 19.11-.18 20.55a2.15 2.15 0 0 0 1.4 1.83l6.06 2.24a.79.79 0 0 0 1.07-.74q-.01-1.99.78-20.8c.17-4.14-.3-8.55-.53-13.02-.38-7.5-1.83-15.18-2.04-22.74q-.41-15.78-.66-18c-1.51-13.64-.91-26.86.4-41.78.41-4.59.29-10.02.7-13.96q1.41-13.64 2.25-23.9c.13-1.69.6-3.5.93-5.27a1.1 1.09 4.4 0 0-1.12-1.3M519.64 598.32q.06-7.33 7.13-10.61.74-.34 6.29-.62a8.92 8.42 36.3 0 0 1.38-.17q10.96-2.18 16.68-3.59 8.84-2.18 14.5-2.05c7.5.17 28.42 2.21 30.14 10.58a1.66 1.66 0 0 0 1.97 1.29l4.42-.96a1.74 1.74 0 0 0 1.14-2.59c-3.76-6.37-14.65-9.45-21.95-11.35-9.17-2.38-19.08-2.46-27.78-1.09q-14.13 2.22-26.76 6.13c-3.3 1.02-13.24 6.75-12.33 11.69q.57 3.07 4.29 4.02a.71.71 0 0 0 .88-.68M514.78 604.5q.1 22.76.42 31.36c.61 16.36 3.75 31.9 12.48 45.74 5.83 9.24 15.66 16.78 26.62 17.24q6.71.29 19.5-.21 2.53-.1 8.03-1.55c8.07-2.12 14.56-3.73 17.83-12.33.89-2.33 2.53-5.64 3.14-7.73q2.02-6.86 4.1-13.56.75-2.43 2.92-3.26a1.84 1.8 43 0 1 1.24-.03q4.61 1.54 5.72 1.77c9.74 2.06 19.03-3.2 23.25-11.88 4.65-9.55 7.02-23.46 1.5-32.92-4.68-8.04-17.23-8.87-24.41-4.95-3.54 1.94-6.47 3.36-9.31.64-2.46-2.35-1.77-11.02-1.77-14.6a.49.49 0 0 0-.72-.43q-5.63 2.97-13.96 5.78c-15.92 5.36-32.4 5.84-49.38 6.33-10.33.3-18.7-1.16-26.98-5.54a.15.15 0 0 0-.22.13" vector-effect="non-scaling-stroke"/><path d="M524.84 690.02c-7.63-9.78-12.09-23.26-14.28-35.48a.86.85-.9 0 0-.72-.69q-21.89-3.25-44.12-7.53c-2.92-.57-8.64-2.19-9.32-5.1q-.91-3.89 3.21-4.28 7.65-.71 14 1.23 2.08.64 5.01 1.22c5.77 1.13 18.63 4.85 30.23 6.81a.48.48 0 0 0 .56-.5l-.39-10.24a.76.75 8.6 0 0-.51-.68q-1.57-.55-5.51-1.24-6.76-1.2-13.51-2.59c-3.85-.79-8.26-.91-12.17-2.22a1.91 1.7-29.8 0 0-.33-.07l-16.03-1.84a12.1 12.02-48.8 0 0-4.35.3l-5.13 1.33a3.61 3.47-67.9 0 0-1.12.5q-7.38 5.02-13.94 7.97-18.71 8.42-33.86 16.09c-13.82 7-27.07 12.43-41.28 19.6q-5.33 2.69-12.38 5.87c-6.4 2.88-13.46 6.56-20.85 9.67-6.58 2.77-14.26 5.1-19.23 8.84q-4.88 3.68-8 8.87a.64.64 0 0 0 .46.96q4.22.62 7.92 1.97c17.19 6.27 32.9 11.36 52.15 16.3q97.94 25.14 197.59 51.65 6.19 1.65 32.41 8.9 31.03 8.58 61.65 15.12 7.27 1.55 13.23 2.53c1.77.3 3.35 1.05 4.76 1.32a.91.9-64.1 0 0 .88-.31q3.73-4.6 5.25-5.93a339 339 0 0 1 31.22-24.32c10.8-7.44 21.98-14.83 32.62-22.81 7.55-5.67 13.12-10.07 20.73-15.35q11.08-7.68 18.72-13.77c4.42-3.53 9.4-6.57 14.43-10.26q3.93-2.89 8.24-7.74 3.1-3.49 2.27-7.44a1.82 1.78 17 0 0-.51-.93q-1.6-1.52-3.61-2.17c-9.9-3.2-19.25-6-30.18-7.45-10.79-1.42-16.08-1.83-25.31-3.59q-2.96-.56-16.98-2.4c-12.14-1.6-26.66-4.27-40.15-7.47q-23.73-5.64-44.78-9.77-1.1-.21-3.27-1.25a1.26 1.24-45.5 0 0-1.12.02q-.5.26-5.35 3.68-8.87 6.26-21.06 2.54-.81-.25-1.14 2.56a.6.6 0 0 0 .52.66c3.4.41 9.02.44 13.27 1.29 10.77 2.15 21.4 3.54 32.64 5.79q14.04 2.82 43.94 8.56 25.27 4.86 57.07 13.65c3.74 1.03 10.74 3.08 11.68 5.7 2.2 6.19-6.91 5.73-10.61 5.41q-3.5-.31-7.6-1.68c-15.49-5.17-30.28-9.91-44.47-12.65q-20.21-3.91-54.72-9.5c-9.06-1.46-17.55-3.73-26.19-5.86q-7.1-1.74-17.77-1.68a.78.78 0 0 0-.73.5c-2.89 7.66-5.91 14.09-13.03 18.73-2.72 1.77-5.48 2.46-8.1 3.41a.35.35 0 0 0 .06.67c21.32 3.58 33.63 5.83 49.23 8.14q27.5 4.07 66.63 10.29c5.46.87 10.4 2.19 15.15 2.66 6.46.65 15.53 4.39 14.86 11.57-.34 3.59-5.54 5.19-8.48 5.43a2.8 2.65-39 0 1-.9-.07c-3.02-.74-6.94-.88-10.72-2.1q-21.74-7.02-43.16-10.99-34.9-6.45-78.89-13.7-11.4-1.87-16.01-2.76-13.33-2.55-16.06-2.64a2.8 2.72 59.9 0 1-1.28-.36c-2.97-1.66-7.46-1.79-10.78-2.55-18.09-4.1-35.78-8.62-52.88-12.46q-17.05-3.83-36.73-9.68c-8.99-2.67-20.69-4.77-27.8-6.78q-9.54-2.68-13.01-4.43c-3.36-1.69-4.08-6.72.79-7.24q4.31-.46 8.91.61c17.25 4 29.16 6.69 45.76 9.78q10.73 2 30.01 7.1 10.1 2.67 21.95 7.28a.35.34-8.1 0 0 .4-.53M299.43 714.02c-.17 5.26.66 13.23.05 20.63-.43 5.3-.48 15.77-1.44 23.52-.81 6.55-.38 12.37 1.59 18 1.93 5.49 6.97 8.01 12.49 10.84 7.28 3.73 14.21 6.81 21.95 7.79 5 .63 8.75 1.8 13.71 2.05a9.95 9.88 54.7 0 1 2.41.42c2.1.64 4.14 1.27 6.55 1.39 3.25.15 6.11 1.28 9.39 2q28.53 6.28 59.24 13.97c14.31 3.59 23.15 5.3 36.99 8.33 3.68.81 7.24.51 10.58 1.82q1.6.63 5.88.81 4.38.18 8.3 1.48c2.13.71 4.96.45 6.64.85q1.74.41 9.97 2.01c7.94 1.55 15.78 5.69 22.63 8.05 16.29 5.61 34.73 9.04 53.93 12.75q20.66 3.99 51.87 13.08 17.96 5.23 24.91 6.85 7.18 1.68 13.6 2.33a1.18 1.18 0 0 0 1.3-1.2q-.37-17.59-1.01-26.99c-.81-12.03-.6-19.07-.71-32.26a2.48 2.48 0 0 0-1.61-2.31c-4.19-1.58-9.58-1.23-13.42-2.23q-1.47-.39-6.46-1.29-17.43-3.18-35.69-8.31-13.72-3.85-50.33-14.09c-17.13-4.79-41.68-10.76-53.6-13.97-35.2-9.47-54.37-14.29-90.31-23.87q-15.48-4.13-42.64-10.9-13.97-3.48-43.41-11.95-4.18-1.2-13.31-4.67-3.17-1.21-16.07-5.34-1.9-.61-3.41-.27a.72.72 0 0 0-.56.68M404.93 871.4q10.63-5.36 22.05-8.41 7.84-2.09 19.82-4.92 4.36-1.03 13.57-5.28 5.46-2.53 12.11-8.01 9.24-7.63 13.09-11.17a.6.6 0 0 0-.32-1.04q-9.15-1.19-19.46-2.63c-3.59-.5-5.23-1.16-9.27-2.46a1.88 1.88 0 0 0-2.07.64c-6.26 8.09-17.14 14.56-23.3 19.27q-14.8 11.32-26.4 23.76a.16.15-81.4 0 0 .18.25M380.25 866.52a.49.49 0 0 0 .03-.86q-11.52-7-19.95-11.76-5.44-3.07-11.65-5.07a2.57 2.56 31 0 0-2.63.65q-6.83 6.99-15.64 10.38c-8 3.07-18.93 8.21-23.73 10.65a6.47 6.26 27 0 1-2.06.63q-5.85.75-8.66.01-1.59-.43-7.56-2.3c-4.01-1.26-9.3-5.38-12.66-9.54q-1.77-2.19-9.07-10.34-1.97-2.2-7.79-6.72c-5.94-4.62-12.3-5.59-18.69-2.07-9.93 5.46 8.52 19.07-6.22 24.27q-1.31.47-2.42.52-13.59.7-24.52-.59-3.7-.44-7.19.58a.82.82 0 0 0-.45 1.25q4.13 6.13 9.25 11.6c3.69 3.95 5.72 9.2 2.27 13.77-3.67 4.86-14.26-1.75-18.12-4.07-9.05-5.41-22.32-8.91-32.9-7.67q-1.58.19-2.22.77a2.04 1.88 50.1 0 0-.13 2.66c3.78 4.88 11.64 7.56 17.86 9.89 3.65 1.36 13.05 5.59 13.77 9.2.67 3.34-1.49 4.9-4.73 5.73-3.94 1.02-8.38 2.05-11.3 4.27q-.73.55-.94 2.13c-.25 1.77 2.06 2.72 3.35 2.72q4.92 0 8.06.61c5.81 1.12 8.66.77 14.71 1.1 10.61.57 19.15 4.07 31.02 8.07 8.23 2.78 17.14 4.83 25.91 3.52q17.12-2.56 29.88-13.72a6.58 6.54-10.3 0 0 1.8-2.58c2.49-6.48 5.1-12.15 12.73-13.27 5.33-.77 9.21 1.33 14.18 4.07q5.99 3.3 10.38 7.57a.62.62 0 0 0 .86.02c3.85-3.47 5.4-4.96 8.97-7.32q7.73-5.12 14.21-9.75 2.14-1.53 12.12-11.94c3.52-3.68 7.29-7.13 9.95-9.9 3.16-3.27 5.95-5.17 9.92-7.17" vector-effect="non-scaling-stroke"/><path d="M334.02 848.98c-4.01-.59-7.16-1.37-11.05-1.37q-6.7.01-13.78 2.11c-7.28 2.15-8.22 7.85-10.42 14.22a.55.55 0 0 0 .43.72c2.04.32 4.34.29 6.51-.52q5.74-2.12 6.9-2.78 11.34-6.43 21.55-11.48a.48.48 0 0 0-.14-.9M350.55 902.11q3.32.82 8.16.66c3.21-.11 7.28.01 9.64-1.15q13.98-6.86 23.21-19.47a3.17 3.16 50.6 0 0 .31-3.23c-4.58-9.72-12.71-6.35-18.56-.61q-12.03 11.79-15.09 15.32c-2.3 2.65-5.44 4.82-7.97 7.44a.63.63 0 0 0 .3 1.04M429.04 894.27q-.25-.42-1.48-1.3c-6.38-4.55-13.36-4.24-20.61-2.68-15.7 3.38-35.86 16.16-31.08 35.34.99 3.96 4.52 5.55 7.38 2.1 5.29-6.38 9.97-11.77 15.73-16.31a16.24 16.22 16.2 0 1 4.74-2.6c7.2-2.5 11.75-3.65 16.71-6.75q5.09-3.19 8.38-6.27a1.24 1.23-36.8 0 0 .23-1.53" vector-effect="non-scaling-stroke"/><path d="M458.6 920.35q-3.65-9.6-9.8-16.86-2.29-2.72-8.86-6.53a.91.91 0 0 0-1.11.14q-9.1 9.05-20.09 14.8c-9.93 5.19-18.02 10.07-23.79 15.03q-12.86 11.04-16.61 13.63-7.17 4.94-16.34 5-5.37.03-10.74-3.25c-7.82-4.77-17.84-10.9-24.69-18.21-5.37-5.71-12.02-12.1-19.77-15.36-3.48-1.46-9.72-1.52-11.43 2.39-3.76 8.57 4.4 14.65 3.46 21.78a3.19 3.19 0 0 1-1.61 2.37q-4.12 2.31-9.51 1.58-10.09-1.36-19.86 1.86a1.64 1.64 0 0 0-.99 2.2c2.29 5.3 9.89 7.41 8.9 16.41-.47 4.38-4.08 5.63-7.79 5.43q-4.29-.24-14.07-1.52a18.01 18-43.3 0 0-3.49-.1q-.64.04-8.81 1.08c-4.77.61-8.17 2.17-11.65 4.78q-.42.32-.27.87.05.21.35.35 5.74 2.6 10.55 3.79 5.31 1.31 10.94 2.49 3.11.65 7.96.54c6.87-.17 9.72.01 19.03.16q.84.02 3.56.9c4.1 1.32 4.39 4.29 2.1 7.86q-1.38 2.14-7.25 9.45-1.35 1.69-1.48 3.55a1.15 1.15 0 0 0 1.06 1.23q1.74.13 3.63-.33c7.44-1.84 14.96-3.97 23.25-4.49 9-.56 18.5-.39 27.43 2.5q2.83.92 13.91 3.54 10.87 2.57 20.91-1.16 3.33-1.23 13.84-7.61c11.17-6.78 20.66-13.87 29.12-22.69 9.99-10.42 13.66-13.69 24.25-24.61 4.37-4.5 11.17-11.22 14.97-15.02q4.9-4.9 10.55-7.4a.45.45 0 0 0 .24-.57" vector-effect="non-scaling-stroke"/><path d="M372.16 935.71c-4.3-6.66-7.52-16.24-5.76-24.16a.35.35 0 0 0-.36-.42c-5.38.38-10.49-.26-15.33-2.58l-5.52-2.66a.91.9 41.8 0 0-.91.05l-15.36 10.09a.51.51 0 0 0-.13.74q2.73 3.59 6.12 6.33 8.23 6.68 15.41 11.08 4.9 3 6.9 3.37 7.31 1.34 14.57-.82a.68.68 0 0 0 .37-1.02M290.52 929.87a.37.37 0 0 0 .43-.5l-2.96-7.32a.28.28 0 0 0-.43-.12l-9.06 6.99a.22.21 22.6 0 0 .16.38q6.55-.67 11.86.57M424.78 961.92q5.94-1.13 11.16.48 2.31.71 6.56-.04a3.13 3.11-68.4 0 0 1.39-.61c6.33-4.85 9.97-7.93 14.34-13.19 4.85-5.85 5.3-12.67 2.25-19.53a1.16 1.15 61.5 0 0-1.68-.5q-1.82 1.18-5.86 4.01c-4.65 3.25-9.65 9.16-12.36 11.54q-1.13.98-6.44 7.54-4.53 5.6-9.56 9.88a.24.24 0 0 0 .2.42M644.57 88.55q3.19.99 6.95-2.04c5.18-4.18 6.09-13.47-1.42-15.8s-12.01 5.85-10.1 12.23q1.39 4.63 4.57 5.61M587.76 88.65c9.63 1.14 14.97-16.73 3.54-17.73q-8.88-.78-9.5 7.78c-.24 3.25 1.8 9.45 5.96 9.95M790.87 163.82l-1.69-.17a.67.67 0 0 0-.73.6l-.21 2.07a3.69 1.41-84.4 0 0 1.05 3.81l.22.03a3.69 1.41-84.4 0 0 1.76-3.54l.2-2.07a.67.67 0 0 0-.6-.73M771.204 164.636a1.35 1.35 0 0 0-1.698-.873l-.134.043a1.35 1.35 0 0 0-.872 1.698l1.656 5.16a1.35 1.35 0 0 0 1.699.873l.133-.043a1.35 1.35 0 0 0 .872-1.698l-1.656-5.16M808.678 169.052a3.41 1.41-63 0 0-2.804 2.398 3.41 1.41-63 0 0-.292 3.678 3.41 1.41-63 0 0 2.804-2.398 3.41 1.41-63 0 0 .292-3.678M780.88 272.73q4.39-.5 11.1-1.25c3.57-.39 6.37-1.64 9.84-1.63q3.39.01 7.35-1.17 12.47-3.69 18.52-15.16c1.52-2.89 4.36-8.55 5.26-12.54q2.22-9.94 2.27-18.44c.03-4.46-.78-7.87-1.77-14.01q-.42-2.64-2.35-7.32c-3.76-9.19-8.09-17.76-18.37-20.69q-2.45-.7-5.01-1.68-1.61-.62-6.64-.29a11.42 11.33 49.7 0 1-3.38-.29l-14.92-3.58a3.2 3.2 0 0 0-.79-.08q-7.5.3-12.39 2.81c-10.65 5.46-18.79 15.2-22.58 27.02q-1.89 5.92-2.23 8.59c-1.35 10.64-1.23 22.05 2.82 32.08q3.05 7.53 6.29 11.78c6.44 8.44 15.1 14.52 25.69 15.85a5.39 5.06-43.2 0 0 1.29 0M753.79 181.32l1.2-1.03a.48.48 0 0 0 .04-.68l-1.93-2.24a4.56 1.19 49.1 0 0-3.89-2.67l-.12.11a4.56 1.19 49.1 0 0 2.09 4.22l1.93 2.24a.48.48 0 0 0 .68.05" vector-effect="non-scaling-stroke"/><path d="M737.542 191.822a3.98 1.47-147 0 0 2.537 3.4 3.98 1.47-147 0 0 4.139.936 3.98 1.47-147 0 0-2.537-3.4 3.98 1.47-147 0 0-4.139-.936M738.38 212.38q-1.53-1.54-5.31-2.54a1.11 1.04 5.9 0 0-1.4 1.06c.18 2.34 4.11 2.95 6.18 2.85a.8.8 0 0 0 .53-1.37M738.44 233.63l-.09-1.44a.45.45 0 0 0-.48-.42l-2.9.19a4.54 1.03-3.6 0 0-4.47 1.31l.02.28a4.54 1.03-3.6 0 0 4.59.74l2.91-.18a.45.45 0 0 0 .42-.48M744.386 252.674a3.93 1.56-33.8 0 0-4.134.89 3.93 1.56-33.8 0 0-2.398 3.482 3.93 1.56-33.8 0 0 4.134-.89 3.93 1.56-33.8 0 0 2.398-3.482M755.032 266.014a4.22 1.45-46 0 0-3.975 2.029 4.22 1.45-46 0 0-1.889 4.043 4.22 1.45-46 0 0 3.975-2.029 4.22 1.45-46 0 0 1.889-4.043M766.999 275.616a3.6 1.36-62.2 0 0-2.882 2.55 3.6 1.36-62.2 0 0-.476 3.819 3.6 1.36-62.2 0 0 2.882-2.55 3.6 1.36-62.2 0 0 .476-3.82M689.5 322.35a2.15 2.15 0 0 0 3.13.63q3.33-2.47 5.41-6.19 5.8-10.35 10.77-22.63c1.98-4.9 6.76-12.7 2.1-17.35a3.06 2.87 51.7 0 0-3.6-.54q-1.4.84-2.39 2.67-8.71 16.18-15.8 35.57-1.62 4.45.38 7.84M697.703 178.01a22.18 19.66-56.9 0 0-28.582 7.844 22.18 19.66-56.9 0 0 4.356 29.317 22.18 19.66-56.9 0 0 28.582-7.845 22.18 19.66-56.9 0 0-4.356-29.317M528.94 181.73q-1.32.34-2.07.37c-28.59 1.3-48.51 22.93-52.56 50.27-3.71 25.02 11.99 52.78 35.56 62.6 26.93 11.22 56.31-.39 70.96-24.84q9.19-15.32 8.35-33.09-.13-2.77-.78-5.47c-5.36-22.27-20.69-39.73-42.44-47.41-4.44-1.57-9.01-1.7-13.78-2.55a7.71 7.65-46.9 0 0-3.24.12M409.61 280.53q-1.62 4.28 1.79 7.38a1.86 1.85 65.3 0 0 1.26.47q6.75-.12 11.96 1.1a4.72 4.66-42.2 0 0 1.82.08c3.62-.52 8.36-.71 9.11-4.47 1.48-7.39-5.7-8.88-11.54-8.97q-8.58-.12-13.79 3.63a1.75 1.75 0 0 0-.61.78M590.98 285.24c-.25 2.35.15 4.56 2.59 5.75q3.51 1.72 7.97 3.11a7.7 7.42-33.8 0 0 1.85.33q6.36.32 16.57.55 5.85.13 14.22.65 11.21.71 23.32-1.36c6.22-1.06 9.8-5.36 7.73-11.86-.96-3.03-4.12-4.62-6.99-4.69q-7.57-.19-32.73.2-10.08.16-16.58-1.54a3.09 3.07 41.4 0 0-1.86.11c-3.05 1.17-7.89.68-11.07 2.38-2.34 1.25-4.73 3.63-5.02 6.37M459.11 288.18q8.9-.26 9.61-.38c7.56-1.23 7.28-9.43-.47-9.59q-2.32-.05-9.44.16-7.11.21-9.43.4c-7.72.62-7.51 8.83.11 9.61q.71.07 9.62-.2M406.67 296.37c-3.93 3.16-.68 7.76 3.08 8.92 5.87 1.81 19.65 4.03 24.31-.46 4.03-3.9 1.72-9.01-3.46-9.71q-5.08-.7-10.57-1.39a2.33 2.2 60.6 0 1-.71-.22l-1.57-.78a1.88 1.85 55.2 0 0-1.01-.19q-5.94.5-10.07 3.83M776.837 181.27a2.04.37-175.2 0 0 2.002.539 2.04.37-175.2 0 0 2.064-.198 2.04.37-175.2 0 0-2.002-.54 2.04.37-175.2 0 0-2.064.198M788.89 186.98l-18.14-2.97a2.67 2.62-54.8 0 0-1.74.32c-7.37 4.27-11.56 11.84-14.76 19.46q-3.05 7.27-3.75 12.92-2.37 19.09 7.59 35.41c2.66 4.36 6.01 7.47 9.82 10.7q.98.83 3.26 1.62a.63.62-36.1 0 0 .27.04l17.33-1.51a.28.28 0 0 0 .15-.49q-1.32-1.08-3.16-1.07-10.05.11-15.01.31-2.52.11-4.35-1.02a.5.5 0 0 1 .17-.92q7.79-1.35 17.35-1.33a.71.71 0 0 0 .56-1.14l-2.43-3.16a2.39 2.37-22.4 0 0-2.18-.9q-7.01.9-19.01.07a.65.64-66.8 0 1-.43-1.08l.33-.36a2.81 2.78 19.9 0 1 1.94-.9l15.79-.61a.95.95 0 0 0 .85-1.31l-1.3-3.21a1.34 1.33 78.9 0 0-1.24-.84h-19.42a1.03 1.03 0 0 1-.95-.64l-.15-.38a.84.84 0 0 1 .7-1.16L776 241a.41.41 0 0 0 .36-.5l-1.17-5.48a.63.62 83.6 0 0-.61-.49l-19.68-.21a.76.76 0 0 1-.64-1.17l.17-.33a1.49 1.48-77.3 0 1 1.27-.81l18.47-.72a.57.57 0 0 0 .55-.59l-.22-5.72a.57.56-.5 0 0-.56-.54c-10.05-.22-15.95.04-21.01-1.12a.84.83-54 0 1-.24-1.53q1.71-1.03 4.06-1.24 2.65-.24 17.43.08a.9.89-85.8 0 0 .91-.79l.64-5.58a.75.74-85.7 0 0-.71-.83c-3.91-.14-6.65.04-10-.6q-3.33-.64-9.42-1.01a1.23 1.23 0 0 1-1.15-1.17v-.41a.76.76 0 0 1 .76-.75h20.82a.91.91 0 0 0 .88-.69l1.32-5.52a.69.69 0 0 0-.56-.85q-7.86-1.33-16.35-2-1.76-.13-3.63-1.28a.64.64 0 0 1 .23-1.18c7.08-1.1 13.58.16 20.68 1.1a2.16 2.15-69.2 0 0 2.08-.94l2.01-3a1.21 1.21 0 0 0-.91-1.88c-5.39-.44-12.62-.52-17.36-2.78a.79.79 0 0 1-.04-1.4q.63-.34 1.37-.34 10.79.01 19.77 1.77a1.65 1.63 26.6 0 0 1.53-.5l2.09-2.28a.45.44-63.7 0 0-.25-.74" vector-effect="non-scaling-stroke"/><path d="M799.39 262.12c5.72.11 11.17.25 15.55-3.21q7.15-5.65 10.81-15.58c2.67-7.25 2.71-17.38 2.4-25.3-.39-9.93-5.32-29.03-16.87-31.57q-3.36-.73-8.17-.2c-13.49 1.49-20.49 19.74-21.52 31.01-1.51 16.53.67 34.59 16.08 44.34a3.29 3.2-27.7 0 0 1.72.51M693.555 183.659a15.38 13.27-58.2 0 0-19.383 6.078 15.38 13.27-58.2 0 0 3.173 20.064 15.38 13.27-58.2 0 0 19.383-6.078 15.38 13.27-58.2 0 0-3.173-20.064M521.69 188.81q-31.6 6.79-39.44 36.91c-5.75 22.13 2.74 45.5 21.8 58.74q10.61 7.37 23.73 7.93c3.82.17 9.23.22 13.28-.69 23.51-5.27 40.33-25.2 41.02-49.45q.17-6.09-.95-10.95c-2.03-8.86-4.69-15.79-10.54-22.45q-5.4-6.15-10-9.88c-7.75-6.29-18.62-10.94-29.19-10.57q-9.33.33-9.71.41" vector-effect="non-scaling-stroke"/><path d="M686.45 185.4a1.22 1.21-50.6 0 0-2.06.21c-1.5 3.13-2.96 10.2.32 12.69a1.07 1.07 0 0 0 1.7-.67c.4-2.37 1.77-9.93.04-12.23M805.11 222.76a.71.71 0 0 0 1.26.38c1.96-2.45 1.81-3.71 2.2-6.75q1.56-12.22-.16-23.59a2.26 2.22 77.3 0 0-2.85-1.84q-.27.08-.56.55c-2.7 4.42-1.41 11.14-1.61 14.83q-.24 4.23.51 7.32.65 2.69 1.21 9.1M532.614 194.517a1.82 1.82 0 0 0-1.824-1.817h-.16a1.82 1.82 0 0 0-1.816 1.823l.012 7.28a1.82 1.82 0 0 0 1.823 1.817h.16a1.82 1.82 0 0 0 1.817-1.823l-.012-7.28M517.377 196.934a1.09 1.09 0 0 0-1.392-.66l-.076.026a1.09 1.09 0 0 0-.661 1.392l2.355 6.614a1.09 1.09 0 0 0 1.392.66l.076-.026a1.09 1.09 0 0 0 .661-1.392l-2.355-6.614M547.123 198.113a1.17 1.17 0 0 0-.555-1.56l-.072-.034a1.17 1.17 0 0 0-1.56.555l-2.959 6.233a1.17 1.17 0 0 0 .555 1.56l.072.034a1.17 1.17 0 0 0 1.56-.556l2.959-6.232M502.93 205.18l5.05 5.06a.97.96 6.3 0 0 1.5-1.2q-2.37-3.7-5.19-5.54a1.09 1.09 0 0 0-1.36 1.68M557.781 205.226a1 1 0 0 0-.138-1.408l-.077-.063a1 1 0 0 0-1.407.138l-4.24 5.161a1 1 0 0 0 .138 1.408l.077.063a1 1 0 0 0 1.407-.138l4.24-5.161M527.78 210.71c-4.01 2.62-5.18 12.23-5.68 17.11-.89 8.77-.82 18.29 1.41 27.02 1.31 5.11 5.17 13.6 11.48 9.94 7.26-4.22 5.99-27.52 5.35-35.37-.2-2.37-.99-6.26-1.42-8.08-.88-3.79-5.51-14.29-11.14-10.62M494.243 213.427a4.63 1.31-143.2 0 0 2.922 3.822 4.63 1.31-143.2 0 0 4.492 1.725 4.63 1.31-143.2 0 0-2.922-3.823 4.63 1.31-143.2 0 0-4.492-1.725M567.53 214.34l-.9-1.28a.47.47 0 0 0-.66-.11l-2.55 1.82a5.48 1.15-35.4 0 0-3.8 4.11l.12.16a5.48 1.15-35.4 0 0 5.13-2.24l2.55-1.81a.47.47 0 0 0 .11-.65M487.54 227.2l8.61 2.48a.21.21 0 0 0 .26-.14l.11-.41a3.43 2.03 16.1 0 0-2.73-2.9l-2.42-.7a3.43 2.03 16.1 0 0-3.86 1l-.12.41a.21.21 0 0 0 .15.26M564.45 230.43l9.76-3.11a.12.12 0 0 0 .08-.15l-.02-.06a3.41 2.6-17.7 0 0-4.04-1.44l-3.49 1.11a3.41 2.6-17.7 0 0-2.45 3.52l.01.05a.12.12 0 0 0 .15.08M577.157 240.605a1.81 1.81 0 0 0-1.722-1.893l-8.051-.38a1.81 1.81 0 0 0-1.894 1.723l-.007.16a1.81 1.81 0 0 0 1.722 1.893l8.051.38a1.81 1.81 0 0 0 1.894-1.723l.007-.16M496.647 240.196a1.71 1.71 0 0 0-1.752-1.668l-8.397.205a1.71 1.71 0 0 0-1.668 1.751l.004.14a1.71 1.71 0 0 0 1.75 1.668l8.398-.205a1.71 1.71 0 0 0 1.668-1.751l-.003-.14M496.975 251.54a4.97 1.35-20.5 0 0-5.128.476 4.97 1.35-20.5 0 0-4.182 3.005 4.97 1.35-20.5 0 0 5.128-.476 4.97 1.35-20.5 0 0 4.182-3.005M502.25 260.74a4.52 1.2-41.4 0 0-4.184 2.09 4.52 1.2-41.4 0 0-2.596 3.89 4.52 1.2-41.4 0 0 4.184-2.09 4.52 1.2-41.4 0 0 2.596-3.89" vector-effect="non-scaling-stroke"/><path d="M527.47 236.83c-.02 7 .66 13.92 2.99 20.14q.43 1.15 1.21 1.47a.6.6 0 0 0 .83-.45c1.28-7.02 2.18-14.19 2.21-20.99.02-7-.66-13.92-2.99-20.13q-.43-1.16-1.21-1.48a.6.6 0 0 0-.83.45c-1.28 7.02-2.18 14.19-2.21 20.99M561.95 454.44q-.73.4-1.2 1.59-5.09 12.92-5.29 13.42c-1.41 3.6-3.12 8.92-1.21 12.53 2.05 3.87 7.18 7.88 11.7 5.72 5.88-2.83 5.86-8.34 4.4-14.23-1.74-7.05-3.6-13.34-7.31-18.77a.83.82 58.1 0 0-1.09-.26M495.53 476.08c-3.12-1.46-5.18 4.33-5.34 6.69q-.91 13.16-.22 24.48c.63 10.32 1.78 20.47 1.71 30.37q-.16 20.93.08 51.38c.04 4.84-.54 25.74 7.37 22.59 3.37-1.34 3.83-8.33 4.02-11.34q.49-7.94.26-16.34-.38-13.72-.22-16.33c.48-7.66-.82-15.18-1.09-23.14q-.35-10.48-.75-23.06-.33-10.54-.22-16.74.16-8.8-.5-16.75c-.33-4.04-1.28-10.01-5.1-11.81M561.09 505.02q-.88 1.86-1.66 4.6c-1.3 4.59-2.73 7.28-5.42 13.42q-1.63 3.71-2.2 6.11-1.28 5.42-1.15 6.41.73 5.62 5.03 8.64c3.92 2.76 10.27 1.81 13.22-1.82q5.91-7.25 2.03-16.4-5.22-12.33-8.87-20.94a.54.54 0 0 0-.98-.02M614.36 356.99c-3.43.78-4.76 3.14-5.01 6.72q-.27 3.92-2.42 9.61c-1.31 3.47-2.7 4.69-5.5 6.61q-2.03 1.39-2.29 3.67a2.02 1.85-75.2 0 0 1.07 2.04c4.8 2.15 10.7-2.21 13.39-6q4.93-6.95 5.29-15.98c.11-2.59-.72-5.87-3.55-6.65a1.93 1.89 45.6 0 0-.98-.02M589.21 401.02a1.7 1.69 85.7 0 0-1.89-1.63c-6.92.83-6.78 5.66-8.08 11.13a14.06 13.97 67.8 0 1-2.09 5.02l-6.34 9.48a2.78 2.78 0 0 0 1.9 4.3l.5.08a7.77 7.76-64.2 0 0 7.33-2.55q3.61-4.09 5.19-8.46c1.82-5.04 3.65-11.65 3.48-17.37" vector-effect="non-scaling-stroke"/><path d="M566.6 528.79q-.13.05-.19.64-.37 3.68-1.44 5.63c-.92 1.67-2.57 2.89-3.63 4.01a1.14 1.14 0 0 0 .32 1.8l.05.02a2.35 2.34-50 0 0 2.47-.22q5.89-4.41 3.65-11.29a.94.93 70.3 0 0-1.23-.59M609.65 650.72c3.09 6.72 11.29 5.05 16.01 1.7 8.22-5.83 16.39-16.4 10.95-26.93q-2.79-5.4-7.19-6.81c-14.5-4.65-20.22 12.84-21.16 23.54q-.41 4.6 1.39 8.5M522.95 645.67a1.88 1.71-81 0 0-2.08 1.67q-.34 2.98.34 6.92 1.62 9.52 2.93 13.84c2 6.61 7.25 16.63 13.6 21.21 5.32 3.86 9.53 6.77 15.79 7.63q2.37.33 9.39-1.02 3.42-.65 12.92-1.32c8.72-.62 17.7-5.86 20.24-14.79q3.04-10.69 4.15-18.54c.63-4.47-2.35-10.34-7.65-6.4-3.64 2.71-7.57 5.7-11.45 4.49q-10.04-3.13-18.37-.75-3.82 1.09-6.15 1-7.15-.27-13.6-3.13c-3.89-1.72-7.04-2.79-10.84-3.09a2.35 2.33 74 0 1-1.72-.96c-1.26-1.72-4.96-6.22-7.5-6.76" vector-effect="non-scaling-stroke"/><path d="M615.51 647.53a2.62 2.61 65.2 0 0 3.14 1.16c8.64-3.07 16.98-13.07 11.21-22.49q-.81-1.32-2.43-1.66c-10.92-2.26-12.84 16.01-12.07 22.39q.06.44.15.6M358.38 698.91q2.7 4.49 6.15 5.3c16.66 3.89 33.8 7.9 49.09 12.29 16.14 4.64 26.5 7.85 40.59 10.87q24.26 5.18 38.49 8.11c8.4 1.73 17.13 4.19 25.67 5.67q8.26 1.42 19.33 3.87 8.9 1.96 31.32 6.71 10.81 2.29 35.57 9.76c15.1 4.56 36.8 14.45 49.18 18.59q11.4 3.82 13.8 4.07c4.82.48 10.96-.43 9.52-6.93-1.47-6.6-11.57-7.24-16.56-8.48q-28.88-7.17-39.39-10.4-15.82-4.86-29.98-9.13c-8.1-2.44-17.12-5.79-22.36-7.78q-3.96-1.51-10.82-2.63-18.71-3.05-31.87-6.43c-9.24-2.37-19.76-6.9-26.9-9.83q-2.6-1.06-16.31-4.03c-4.35-.94-8.38-1.14-13.21-1.92q-20.63-3.35-42.93-8.88-21.55-5.35-41.82-13.51-7.16-2.89-10.54-3.33c-5.7-.73-15.97-.87-16.37 6.64a2.47 2.41-59.8 0 0 .35 1.4M368.45 988.04q-.38-.15-1.28.14-2.47.81-4.48 1.14a3.92 3.89 49.7 0 1-1.96-.17c-2.55-.9-5.27-2.42-8.02-1.12a1.56 1.56 0 0 0-.83 1.89q1.08 3.35 4.9 3.75 7.04.73 12-3.61a1.21 1.21 0 0 0-.33-2.02" vector-effect="non-scaling-stroke"/></g><path fill="#4C1D03" d="M346.24 802.82q-1.68-.21-11.73-1.75-7.56-1.16-11.47-2.75-7.54-3.09-15.21-6.96c-4.49-2.26-9.64-5.4-12.22-9.98q-1.41-2.51-3.14-8.32-.99-3.37-1.06-8.72-.09-7.54.44-11.24.8-5.65.79-11.21-.01-3 0-18.19.01-12.77 1.87-17.73c4.02-10.72 11.48-15.38 21.78-19.7q12.16-5.1 19.91-8.83 28.76-13.86 76.2-37.09c10.61-5.19 21.76-9.68 31.22-14.23 4.09-1.96 7.78-3.5 7.86-8.21q0-.23.09-1.82c.76-13.44.33-25.67.17-40.95-.17-16.22-1.3-34.9-2.2-51.51-.81-15.12-.11-27.96.75-42.56a.41.41 0 0 0-.64-.37q-5.53 3.62-10.7-1.69a.75.74 53.8 0 0-.88-.14c-9.43 5.04-16.47 9.06-26.43 13.62q-17.73 8.13-28.34 13.58-3.15 1.62-11.21 6.81-1.11.72-8.35 2.16a2.53 2.46-43 0 1-.99-.02q-2.12-.47-4.96-1.11-4.28-.96-8.69-4.86c-10.68-9.41-13.46-26.75-11.77-40.58 2.21-18.1 9.01-32.53 25.49-41.06a.32.32 0 0 0-.09-.6c-3.85-.71-14-2.83-22.46-4.24q-6.59-1.1-14.22-3.88c-7.79-2.85-14.7-6.63-22.1-9.03-10.51-3.42-20.2-7.21-27.87-14.2q-5.52-5.04-10.14-10.59-1.76-2.12-2.92-5.36c-3.81-10.61-2.88-21.67-1.23-33.31q2.21-15.6 7.21-29.59 11.15-31.19 33.77-59.29c8.69-10.79 19.66-20.46 29.34-30.17 11.69-11.74 23.74-21.56 37.39-33.65q10.66-9.45 29.64-28.81 4.63-4.71 6.87-7.7c8.25-10.98 17.12-20.08 29.3-26.41q3.75-1.95 17.78-8.53 10.27-4.81 18.4-6.96 18.85-5 37.09-2.73a.48.47-84.9 0 0 .53-.45q.4-7.04 2.9-13.41c14.07-35.82 46.87-59.72 84.79-64.13q17.38-2.03 35.96 1.15 19.87 3.4 38.2 11.32 26.23 11.35 45.09 32.11 8.09 8.91 13.24 15.86 4.06 5.49 6.21 10.8a1.15 1.14 63.7 0 0 1.64.56c16.32-9.58 33.13-16.3 51.85-17.09 5.64-.24 13.1.35 19.34 1.31q17.18 2.67 34.39 8.55 7.43 2.53 12.35 5.1c5.53 2.89 10.82 4.81 15.97 7.96q16.71 10.2 27.05 19.98 23.27 22 39.58 50.13 13.11 22.63 19.54 45.88 4.28 15.45 5.03 34.01 1.9 46.83-16.54 90.24c-8.41 19.8-23.6 37.15-41.15 49.8q-13.58 9.79-14.16 10.21c-11 7.97-22.8 14.52-34.6 21.04q-4.79 2.65-8.96 4.27a.51.5-11.2 0 0-.32.47c-.2 17.35-.02 31.48.79 47.53q.42 8.32.37 16.19c-.22 37.14-.09 57.6-.2 91.58q-.1 30.35.41 44.68 1.03 29.02.52 41.25-.09 2.23 1.7 7.58a1.47 1.45-38 0 1-.16 1.25q-1.38 2.09-1.38 7.16.01 11.35-.18 14.46c-.39 6.41-2.99 12.3-7.6 18.36q-8.62 11.35-15.37 19.26c-4.38 5.12-9.31 9.57-14.46 14.97-5 5.26-11.51 10.43-16.28 14.91q-5.16 4.85-8.73 7.69c-6.55 5.22-11.12 9.79-17.47 14.64q-4.57 3.5-8.7 6.98-42.21 35.57-59.09 49.91-3.2 2.72-4.74 4.27-8.12 8.19-13.97 13.51c-4.56 4.14-8.55 5.76-14.72 4.75-11.91-1.96-22.47-5.07-35.75-8.99q-12.65-3.74-19.91-5.35c-2.47-.55-6.22-.28-8.93.98q-7.69 3.58-16.25 9.57-18.35 12.86-35.15 26.85-24.1 20.08-45.64 37.35-6.7 5.38-11.76 8.65c-10.31 6.67-18.68 11.8-30.01 15.41q-5.57 1.77-13.03 4.4-1.44.51-4.06.9c-3.02.46-5.9 2.13-9.49 2.26q-12.13.43-20.71-.42a1.9 1.9 0 0 0-1.57.59c-11.28 11.92-24.82 21.03-40 29.57-6.35 3.57-11.87 6.78-18.11 7.51q-6.32.74-13.15-1.21-10.4-2.98-14.2-4.34-1.93-.68-4.62-1.17-2.51-.45-5.03-1.22a1.78 1.62-33.6 0 0-.52-.08l-18.1-.1a1.82 1.71 34.2 0 0-.56.09c-4.07 1.32-8.04 1.49-12.16 2.56q-11.9 3.1-12.98 3.28-1.99.33-4.17-1.46c-5.77-4.72-4-11.28.84-16.22q2.11-2.16 4.08-4.86a.44.44 0 0 0-.35-.7q-9.3-.12-21.13-1.01c-8.19-.61-13.38-2.14-21.83-4.75q-5.37-1.67-8.21-4.52c-3-3.01-3.78-7.09-.4-10.12 7.58-6.79 21.42-9.18 31.84-8.03q7.39.82 12.43 1.7a.45.45 0 0 0 .5-.61c-1.6-4.02-6.56-8.71-8.48-10.93q-1.93-2.22-1.44-6.26a.63.62-85.4 0 0-.6-.71q-.89-.03-8.1-.1c-12.46-.12-26.07-4.8-39.73-9.06a22.73 21.97 55.4 0 0-4.56-.92c-5.15-.5-9.69-1.73-14.66-1.88-7.77-.22-21.38.08-25.56-6.67-2.17-3.5.41-9.88 3.23-12.35 2.29-1.99 5.15-3.13 8.31-4.37a.63.62 44.2 0 0-.02-1.17q-9.68-3.6-12.54-4.79c-5.46-2.27-17.61-9.51-13.89-17.18q2.68-5.54 9.38-6.01 16.25-1.16 31.05 6.42 5.4 2.76 12.75 6.86a.86.86 0 0 0 1.24-1.01q-.56-1.73-2.23-3.65c-5.65-6.47-16.97-17.27-5.8-22.82 4.35-2.16 10.8-1.52 15.54-.42a7.63 7.23 48.7 0 0 1.95.18q3.65-.17 13.35-.04c2.08.03 5.02-.85 4.04-3.75q-1.46-4.28-1.79-6.33c-1.59-9.83 6.03-16.11 15.05-16.86 14.41-1.2 25.81 12.94 34.01 22.74 3.04 3.64 6.41 6.04 10.34 8.23a.45.45 0 0 0 .67-.38c.23-8.87 5.41-14 11.94-20.39 5.52-5.42 11.95-10.95 19.64-16.98q12.34-9.66 24.23-21.33a.42.42 0 0 0-.24-.72m309.77-669.09a.46.46 0 0 0 .35.77h47.48a1.81 1.79 21.7 0 0 1.3-.55q11.23-11.71 21.65-20.15 1.44-1.17 3.03-2.51a.75.75 0 0 0 .23-.81q-3.77-11.09-10.37-18.43-11.21-12.45-14.84-15.65-13.22-11.64-28.6-19.11c-25.13-12.22-53.9-19.16-81.38-15.38q-16.76 2.31-33.96 11.05c-7.22 3.66-13.98 9.22-20.53 14.9q-4.47 3.88-8.23 9.01c-8.48 11.58-13.97 21.99-17.12 36.52a1.4 1.38 30.9 0 0 .31 1.21c2.88 3.31 5.68 8.8 10.17 11.18q10.01 5.31 14.61 8.04a3.36 3.33 58.5 0 0 1.85.45c2.26-.11 5.12-.83 8.4-.96q15.27-.56 29.62-.75a.42.42 0 0 0 .35-.64q-4.64-7.35-3.8-16.77c.4-4.45 5.45-4.62 6.21-.35 1.16 6.49 3.24 14.51 10.75 15.89 2.1.38 2.64.7 4.44 1.43a8.37 8.34 57.4 0 0 2.72.6q5.94.29 12.91 1.13c9.8 1.19 16.33.81 29.19.85q2.29.01 4.01-1.39 11.29-9.19 11.53-23.59c.04-2.05 2.58-5.63 4.9-3.45 2.41 2.28 1.91 7.83 1.22 10.97q-2.03 9.28-8.4 16.49m153.18 14.4a.38.38 0 0 0 .34-.61q-.21-.27-.68-.42-10.81-3.32-19.96-4.16c-7.31-.67-10.31-1.15-17.19-1.36-28.85-.89-50.36-.63-78.83-.74-24.43-.09-52.93.77-78.37-.03-4.25-.14-10.1-1.71-15.03-1.63-11.04.18-25.95-.9-38.95-.5q-14.9.46-18.78.36t-11.4 1.05q-7.73 1.18-15.65 1.24-3.39.03-5.38-.27-4.04-.6-5.39-.33-.64.12-6.53-1.1-3.1-.64-7.02-.22c-10.14 1.09-19.39 3.81-27.36 10.28a1.04 1.01-47.5 0 0 .05 1.65q.32.22.89.07 2.54-.65 6.29-1.16a8.95 8.59 44.9 0 1 2.73.05c3.4.59 5.93.87 8.83.94 28.86.66 61.36-.08 92.6-.02q68.2.12 76.35.28c14.56.28 24.22.78 36.66.66q15.49-.15 29.58.54 1.6.08 5.19-.92a9.77 9.55 35.9 0 1 2.35-.35c4.37-.12 13.39.18 19.43-.71 8.35-1.22 14.13-1.44 21.42-2.45 5.49-.76 9.74-.7 15.54-1.25 9.04-.85 17.72.04 28.27 1.11M727 158.5a.51.51 0 0 0-.39.83c7.68 9.63 6.61 23.37 2.72 34.48-5.26 15.05-11.85 29.18-18.54 43.7-6.64 14.4-10.46 25.67-16.7 43.69q-5.86 16.93-8.82 23.28-5.42 11.64-11.7 22.02a.52.52 0 0 0 .3.77q1.87.55 3.56 1.73a4.13 4.11-22.3 0 0 1.68.7c10.61 1.96 16.15 4.94 28.15 10.57q5.9 2.78 13.47 7.5 16.01 10.01 31.93 23c6.2 5.06 11.47 10.54 18.3 17.02q2.11 1.99 3.17 2.7a1.42 1.42 0 0 0 1.41.09c2.97-1.47 7.41-4.27 10.78-6.66 19.54-13.85 30.51-20.93 42.88-32.72q4.68-4.46 7.08-7.96 2.21-3.24 2.14-8.23c-.28-19.98-.71-36.92-.24-52.66a4.06 3.74-38.5 0 1 .16-1.03l1.28-4.52a1.8 1.8 0 0 0 .07-.49q.1-7.45.25-14.86c.03-1.34-.58-2.6-.1-3.65q.45-.97.47-2.69c.25-18.78.69-33.86-.35-51.72-.3-5.05-1.69-9.12-1.98-14.02q-.16-2.54-1.25-7.65c-1.31-6.18-2.63-18.15-8.7-20.99-7.62-3.55-13.9-4.87-23.17-6.57q-4.99-.92-10.77-.92-11.59 0-17.34.19c-4.3.15-8.56 1.19-12.33 1.46q-5.96.43-14.54 1.58-13.35 1.78-22.88 2.03m-7.51 2.17q-3.39-1.22-5.01-1.35c-3.51-.29-6.47-1.23-10.18-1.23-14.1.02-31.61.23-48.39-.1q-55.47-1.11-134.61-.44-25.02.21-48.74-.28c-7.29-.15-20.21 1.63-24.09 8.22-4.44 7.57-8.99 16.13-12.52 24.54-6.32 15.02-11.55 27.02-16.78 41.82q-16.66 47.11-20.6 58.7-4.97 14.6-6.09 21.63-.93 5.84-.6 11.18.42 6.6 6.42 8.14 7.4 1.91 7.54 1.94a19.11 18.45-35.9 0 0 3.23.46q6.78.39 10.72 1.11c7.75 1.4 16.82.84 23.54.74a7.3 7.16 37 0 0 1.69-.22q6.66-1.68 19.48-1.81 4.14-.05 12.37-.9c11.47-1.19 18.85-.22 35.13.7 15.33.87 39.57-1.99 59.33-1.23q9.6.37 30.92-.58 7.56-.34 48.49.03c12.52.11 17.6-7.62 22.91-17.33q5.65-10.31 9.44-21 9.57-26.94 13.8-39.6.81-2.43 2.34-6.03c6.88-16.2 14.83-32.25 20.97-48.07q3.27-8.41 4.67-15.58c1.67-8.59 1.14-15.46-4.33-22.68a2.37 2.34-8 0 0-1.05-.78m125.39 168.24q.57-.15.97-.85c7.73-13.37 7.3-25.71 6.16-42.68-.37-5.65-3.61-10.58-7.02-14.94a.28.28 0 0 0-.43-.01q-.2.22-.2.48-.3 19.03.03 57.63a.39.39 0 0 0 .49.37m-448.57-49.59a.35.34-38.4 0 0-.56-.06q-5.38 6.03-10.97 10.86c-3.69 3.19-6.27 6.48-8.26 10.15-4.09 7.54-8.13 15.88-9.08 23.77q-1.02 8.42.08 15.75 1.44 9.53 7.22 21.32c4.65 9.49 13.75 16.8 22.39 23.02 4.37 3.14 10.49 4.76 14.75 6.73 5.7 2.66 6.84 5.15 8.01 10.61.85 4.01 5.46 8.33 9.88 6.76q9.24-3.28 15.68-5.27 1.9-.59 4.07-.83a1.07 1.06-8.5 0 0 .93-1.25q-1.91-10.19-2.28-21.88-.6-18.43 1.22-36.78a.78.77-88.7 0 0-.81-.86q-7.83.42-17.57.5c-8.1.07-15.04-1.39-22.9-1.99-4.15-.31-9.95-1.67-13.1-2.95-9.37-3.8-9.87-11.82-9.25-21.13q.35-5.33 2.34-11.71 4.76-15.29 8.24-24.31.09-.22-.03-.45m-102.42 40.95q-6.87 5.61-9.49 14.06-1 3.2 1.54 3.74 3.26.69 7.46 2.97.75.41 2.06.58a.48.48 0 0 0 .44-.77q-2.72-3.51-3.92-7.44a2.77 2.76-50.6 0 1-.1-1.04q.57-6.52 2.57-11.69a.36.36 0 0 0-.56-.41m592.96 58.31c6.59-1.44 14.2-6.29 19.91-10.06 3.66-2.42 7.5-5.72 8.15-10.1.43-2.92 1.52-6.19 1.59-8.96.05-2.04-1.13-9.24-4.35-10.1a.99.99 0 0 0-1.24.87c-.83 9.73-6.09 17.37-12.58 24.35q-.36.38-12.32 12.47a.91.91 0 0 0 .84 1.53m-390.67 6.63q-7.78-7.01-6.69-17.95.72-7.11 2.34-13.55a.64.63-78.3 0 0-.51-.79c-7.27-1.17-10.85-6.95-14.22-12.9a1.05 1.05 0 0 0-.96-.53l-20.55.79a.66.66 0 0 0-.63.67c.13 11.03-1.33 24.43-.48 36.05q.91 12.54 2.24 21.69a.74.74 0 0 0 1 .58q17.69-6.97 38.14-12.69a.81.8 58.3 0 0 .32-1.37M458.19 620.7c4.23-.06 6.75-.3 10.81.38q19.47 3.23 38.95 6.97a.41.41 0 0 0 .49-.4v-36.58a2.12 2.09-28.1 0 1 .37-1.19c5.12-7.25 10.57-11.1 19.54-13.76q8.58-2.54 11.41-3.07 8.56-1.62 9.31-1.97a2.63 2.52 28.8 0 1 .89-.24q9.13-.9 13.05-1.24c9.65-.83 19.31 1.83 29.11 5.04 6.36 2.07 16.28 7.26 18.35 13.86q2.67 8.55 2.55 16.9a.98.97-12.4 0 0 1.4.89q10.22-5 21.47-1.34c10.46 3.39 15.47 14.74 15.53 25.09q.08 14.05-7.21 26.38a.47.47 0 0 0 .37.7c4.1.33 9.42.67 14.58 1.78 14.53 3.1 28.73 6.97 42.55 9.7 13.49 2.66 24.63 5.05 37.09 6.02 3.86.3 7.33 1.48 11.02 1.75q3.73.26 8.23 1.23 2.05.44 8.25 1.08 2.59.27 15.81 2.8 5.5 1.05 11.11 3.14 2.12.78 11.07 3.26a.63.62-80.9 0 0 .79-.58q.45-14.3.58-32.07c.02-3.42.42-5.1 1-8.92a.57.57 0 0 0-1-.45l-10.12 12.59a.73.62-83.4 0 1-.16.15c-4.01 3.09-7.58.34-11.12-.87-5.11-1.74-8.88-4.55-8.8-10.48q.08-6.92.11-24.5 0-1.76-.88-9.01c-1.15-9.39-1-16.84-1.31-31.7q-.27-12.99.16-25.7.36-10.8 2.33-25.6 2.1-15.78 3.18-23.34.67-4.72.56-7.32c-.25-6.1-.54-9.43.42-13.87a6.95 6.86-14.5 0 1 2.27-3.79q7.52-6.42 14.7-14.61c2.51-2.86 4.59-3.84 8.23-3.23q8.52 1.42 11.33 9.28a5.83 5.78-55.4 0 1 .34 1.9q.05 9.16.2 13.23c.17 4.7-.33 9.09-.19 14.01.24 8.77-1.13 20.25-.63 27.26q1.02 14.35.81 25.24-.13 7.1-.91 20.94c-.64 11.32-.43 22.17-.72 31.28-.18 5.56.93 10.53 1.3 16.03q.38 5.53-.06 8c-1.55 8.77-3.29 15.74-3.37 23.67q-.03 4.17.05 22.41c.03 6.91-.34 13.23-.57 19.99a5.98 5.67 56 0 1-.24 1.44c-2.35 7.84-9.62 14.64-15.91 18.9-4.33 2.93-8.7 5.5-12.75 8.65-7.13 5.55-10.34 8.17-17.89 13.52q-4.47 3.18-11.68 8.75-7.68 5.94-28.97 20.39c-6.77 4.6-13.22 9.49-19.18 13.49q-6.23 4.17-13.99 10.61-11.45 9.49-14.08 12.04-1.55 1.5-1.73 3.5-.47 5.26-.03 10.04.84 9.24.78 10.01c-.4 4.58.37 9.95.32 15.13q-.1 9.98.7 23.94a.7.7 0 0 0 1.2.45q10.21-10.54 21.01-19.5 10.93-9.07 15.3-12.87 34.49-30.04 58.45-49.69 17.33-14.21 29.37-25.12 16.96-15.35 30.5-34.25c3.26-4.54 7.52-10.48 7.91-15.76.82-11.34 1.12-23.56.26-35.24q-.45-6.06-.44-11.5.1-36.84-.56-70.91c-.15-7.71.39-19.43.5-26.3q.6-38.09 0-88.04-.06-4.4-.58-9.01c-1.09-9.67-.98-19.48-.94-29.18a.38.38 0 0 0-.56-.33c-6.54 3.53-15.49 5.83-20.5 7.28q-41.94 12.19-91.35 21.45c-7.69 1.44-13.65 2.96-19.73 6.96-7.51 4.94-18.87 11.93-24.76 2.04-1.46-2.46-1.47-5.05-1.72-7.76a.47.46 71.9 0 0-.7-.36c-15.98 9.77-29.36 24.3-35.94 41.73-2.44 6.46-3.99 11.85-9.09 15.76-3.83 2.93-8.07 3.07-10.77-1.1-7.71-11.93 4.57-30.37 11.66-41.79q1.35-2.19 1.93-3.79a.81.81 0 0 0-.96-1.06q-3.1.77-5.7 2.61-5.48 3.88-10.87 7.87c-3.26 2.41-9.14 4.37-11.06-.59-1.7-4.4 3.48-10.99 6.51-13.98l15.1-14.87q.67-.66 1.31-2.08a.68.68 0 0 0-.8-.94q-8.18 2.27-15.62 3.39-9.89 1.49-16.22-5.21-2.82-2.99-1.23-6.48c3.2-7.02 11.54-7.74 18.65-8.35q3.61-.32 12.56-2.95 7.16-2.11 12.87-7.04a.64.63 57.6 0 0 .16-.75q-.92-2.04-2.85-3.42c-3.96-2.84-7.88-5.72-7.81-10.35.09-5.1 5.07-8.32 9.66-8.92q7.36-.96 14.27 2.97 9.53 5.43 13.05 6.99a1.42 1.37-27.4 0 0 .4.12l15.43 2.67a1.99 1.99 0 0 0 2.28-1.57c1.73-8.46 9.3-15.75 18.53-15.02q25.81 2.02 51.82-5.11 3.97-1.08 7.47-3.22a.7.7 0 0 0 .17-1.06q-4.7-5.44-10.75-10.77c-19.24-16.96-41.76-32.04-65.36-39.71q-3.61-1.18-14.18-3.05-6.76-1.2-14.45-1.09-18.19.25-18.46.27a.96.94-76 0 0-.76.47c-2.18 3.82-5.62 7.07-9.3 10.4a.68.66-38.2 0 0-.11.86c.84 1.28 1.59 2.64 1.4 4.4-.82 7.59-3.64 14.82-7.66 22.05-4.08 7.34-10.77 12.81-18.06 16.04a.99.99 0 0 0-.57.69q-3 12.69-7.62 24.49-3.74 9.55-12.22 15.74a5.59 5.53 18 0 1-1.69.85q-10.3 3.14-17.13 2.43-6.99-.74-25.06-2.89c-6.19-.74-12.79.28-18.48-.49q-3.17-.43-4.65-.45a2.75 2.71 29.8 0 0-1.48.39q-2.97 1.76-17.22 9.99-3.65 2.11-10.61 4.62-2.71.98-3.39 2.96-2.8 8.22-8.33 14.15a.54.54 0 0 0 .05.79c3.16 2.59 3.21 9.76 3.09 13.87-.43 15.1-.87 21.32.25 32.44q.56 5.54.39 13.16c-.23 10.44 1.37 24.36.98 32.85q-.51 11.12.16 16.75.88 7.48.91 14.49c.01 2.43-1.47 15.91-7.33 9.53q-2.74-2.99-2.87-7.28-.11-3.57-.09-3.73 1.81-13.08 2.09-23.7.21-8.18-1.86-28.58c-.19-1.96-.08-5.78-.34-8.32q-1.53-14.74-1.56-15.06c-.46-4.41-.26-8.26-.79-12.44-1.22-9.48-.44-20.42.54-29.14a.54.54 0 0 0-.52-.6q-1.01-.04-2.69.21-8.49 1.29-10.06-6.82a.39.39 0 0 0-.7-.14l-2.64 3.95a1.98 1.92 62.6 0 0-.33 1.09q.06 13.96-.84 27.9-.63 9.79.01 18.95.82 11.77.75 14.36c-.17 5.75 1.08 10.4.99 16.26q-.05 3.42.36 11.11 1.43 26.96.71 57.94c-.03 1.25-.46 1.79-.66 2.72a.61.61 0 0 0 .6.74m40.34-265.59a.35.35 0 0 0-.34.23c-2.19 6.48-5.46 22.89 3.56 25.66q1.92.6 3.72 2.06a1.07 1.06-36.9 0 0 1.07.15c4.16-1.77 7.77-5.16 11.3-7.29a1.92 1.91-49.1 0 1 1.72-.13q10.76 4.49 15.32 14.63a2.04 2.02 79.3 0 0 1.73 1.19q14.27.83 31.22.25 5.34-.19 9.68-.9c6.13-1.01 10.51-.64 16.12-2.01q3.38-.82 8.36-.26c13.27 1.49 23.55-19.62 24.69-30.19q.28-2.69-.39-4.18a2.47 2.47 0 0 0-2.27-1.46q-22.03.14-45.2-.3-12.58-.24-23.16 0c-14.37.33-22.25.02-30.05 1.02q-4.9.63-6.89.75-13.84.9-20.19.78m-25.24 45.03c3.22.18 7.03-.92 10.61-.53q6.88.74 11.62 4.12c3.39 2.43 7.55 7.54 3.58 11.35-2.9 2.79-8.53 3.22-12.29 3.11a.29.29 0 0 0-.12.56c4.34 1.77 9.66 3.14 13.49 5.48q5.7 3.48 9.43 8.95a.89.89 0 0 0 1.14.29l16.64-8.61a1.39 1.35-4.4 0 0 .66-.75q5.27-14.58-1.26-29.49c-1.21-2.75-3.59-6.25-5.55-7.94-2.19-1.9-5.14-.76-8.26.16-5.84 1.71-11.83 4.22-16.32 5.41-7.06 1.88-15.18 5.32-23.42 7.39a.26.25 39.5 0 0 .05.5m-75.49-4.85 15.29 7.43a.05.05 0 0 0 .07-.02l.02-.06a8.45 3.53 25.9 0 0-6.06-6.86l-.17-.09a8.45 3.53 25.9 0 0-9.15-.52l-.02.06a.05.05 0 0 0 .02.06m200.9.59-13.16.65a6.99 6.98 35.6 0 0-1.57.26q-3.67 1.05-5.04 1.12-19.01.96-41.14.01a.46.46 0 0 0-.47.55q1.53 7.54 1.69 8.75 1.43 10.6-2.57 19.65a.61.61 0 0 0 .57.86q6.44-.09 12.07 1.39a5.36 5.14-34.9 0 0 1.02.16l8.43.53a1.97 1.25-24 0 1 .34.05c8.26 2.12 15.3 3 23.15.02 4.7-1.78 7.46-4.63 9.23-8.91 3.42-8.26 5.87-17.49 8.26-23.99a.82.82 0 0 0-.81-1.1m-105.35 15.34a.4.4 0 0 0 .26-.68c-4.27-4.4-8.24-4.43-14.88-4.32-8.08.13-15.63 1.12-23.21 3.5-7.49 2.35-12.57 3.09-22.19 5.27q-3.7.84-10.02-.49a3.1 3.05 69.9 0 1-1.33-.63l-5.07-4.07a.78.74-17.5 0 0-.35-.17q-6.72-1.51-11.77-4.16c-7.07-3.7-12.17-6.99-17.39-7.45a3.04 2.98-52.7 0 0-1.36.2q-6.22 2.48-9.62 8.75c-1.55 2.86-1.61 5.56 1.17 7.26q.34.2 8.26 4.21a4.88 4.83 61 0 0 1.71.5q7.81.77 13.24 7.54 8.32 10.36 17.6 24.37 3.79 5.71 14.02 15.52a.89.89 0 0 0 1.15.06q2.23-1.7 4.81-4.23c1.92-1.87 4.94-.6 5.25 1.94q.46 3.75.14 8.61a2 1.98 33.5 0 0 .22 1.06c2.71 5.09 8.8-.98 6.6-5.47a1.52 1.49 41.9 0 1-.07-1.12c.42-1.26 1.34-2.77 1.73-4.09 1.72-5.74 3.98-13.94 7.84-17.4a2.8 2.66 45.7 0 1 3.7.14c4.35 4.14 3.17 12.75 1.91 18.02a1.46 1.46 0 0 0 .96 1.72c6.11 1.99 11.78-5.65 13.51-10.63 1.75-5.07-1.03-9.06-4.23-14.18a2.33 2.28-66.8 0 1-.33-.85q-.85-4.82 2.79-6.05c7.38-2.48 15.86 2.86 22.58 3.15q1.06.04 2.34-.78a.5.49 54.8 0 0 .12-.72q-5.01-6.59-12.82-8.68-9.23-2.47-11.49-2.99c-2.46-.57-5.81-3.09-4.4-5.9q1.57-3.14 5.25-4.28 6.18-1.91 13.37-2.48m200.53 9.72q9.17 1 17.49-1.47a.8.79 61.2 0 0 .37-1.29q-2.38-2.74-4.65-5.29c-5.55-6.24-11.75 2.49-13.62 7.37a.51.5-76.5 0 0 .41.68m-73.02 61.77q3.16-2.06 7.89-5.42 6.23-4.42 13.78-4.15a2.75 2.5 53.4 0 1 .71.14c4.33 1.6 4.16 6.91 2.29 10.23q-7.36 13.09-8.91 15.58-6.08 9.75-7.41 21.14-.17 1.46.06 2.12a1.86 1.58-37.5 0 0 3.01.15c3.92-4.83 5.04-9.46 8.12-16.86 7.62-18.39 23.77-33.9 41.2-43.3q8.63-4.65 14.53-7.94 4.49-2.51 16.51-6.99a1.15 1.14 88 0 0 .7-.76q2.8-9.94 1.76-20.07a1.89 1.89 0 0 0-2.66-1.53q-3.85 1.74-8.19 1.97-9.62.52-19.78-.03c-3.94-.21-7.72-1.33-11.71-1.84-6.57-.84-11.42-4.07-18.63-7.98-3.8-2.05-10.91-4.73-14.09-.69a1.03 1.02 55.8 0 0-.18.96c.92 2.9 4.58 5.5 6.87 7.56 1.98 1.78 4.2 5.51 2.89 8.11q-1.17 2.33-3.64 4.36-9.55 7.85-21.62 10.12-6.86 1.29-16.95 2.99a2.06 2.05 80.5 0 0-1.68 2.37l.13.25a.95.92-4 0 0 .51.43c5.34 1.78 11.7.87 17.04-.51 4.58-1.18 17.92-3.57 17.36 4.87-.28 4.07-2.33 5.67-5.28 9.01q-1.23 1.39-13.91 13.58-.51.49-1.23 1.64a.36.36 0 0 0 .51.49m-242.65-58.45 1-1.4a.66.66 0 0 0-.15-.92l-1.61-1.16a3.19 1.37 35.8 0 0-3.39-.76l-.18.24a3.19 1.37 35.8 0 0 1.79 2.98l1.61 1.16a.66.66 0 0 0 .93-.14m20.05 67.71q.77-.14 1.29-.41 12.63-6.4 18.48-9.29 5.68-2.79 10.55-6.05a1.19 1.19 0 0 0 .43-1.46c-1.64-3.77-2.63-5.77-5.66-8.91q-9.37-9.74-12.91-14.81-2.25-3.21-10.04-14.42-1.34-1.93-8.22-9.95a2.53 2.52-31.4 0 0-2.86-.69l-1.61.65a1.15 1.15 0 0 0-.24 2q4.27 3.04 9.52 9.36a7.72 7.65 13.4 0 1 1.07 1.72q5.57 12.43 5.38 24.02-.24 14.56-5.92 27.31a.67.67 0 0 0 .74.93m-32.99-58.23q-2.73.4-4.58 2.06-12.82 11.47-15.83 27.48-2.28 12.13-.33 23.94c1.43 8.68 7.25 19.61 16.5 21.2q5.78 1 10.8-3.29c6.38-5.44 11.51-10.69 13.6-18.54 4-15 2.69-31.88-6.75-44.77q-3.72-5.07-9.61-6.51c-1.45-.36-2.6-1.75-3.8-1.57m118.54 6.25a.34.34 0 0 0-.36.52l2.7 4.11a.94.94 0 0 0 1.14.36l5.09-2.06a.47.47 0 0 0-.06-.89zm223.78 17.36q-9.23 3.98-15.95 8.5a6.22 6.21 64.3 0 0-2.46 7.02l.08.28a4.15 4.15 0 0 0 5.87 2.44c7.14-3.7 11.06-10.15 13.08-17.71a.45.45 0 0 0-.62-.53m82.35 27.79q.75.1 1.49-.49c3.26-2.59 5.7-6.4 8.97-9.02q2.59-2.07 4.62-3.99a.79.79 0 0 0-.31-1.33l-.23-.09a1.9 1.89 30.8 0 0-2.05.51l-12.7 13.84a.34.34 0 0 0 .21.57m.44 6.4-3.96.16a1.27 1.27 0 0 0-1.22 1.4q.86 8.62-.03 14.41-2.46 15.87-3.68 27.14c-.24 2.17-.99 4.88-1.15 7.35q-1.7 25.1-.64 51.76c.4 10.08 1.79 23.96 1.62 34.67q-.3 19.11-.18 20.55a2.15 2.15 0 0 0 1.4 1.83l6.06 2.24a.79.79 0 0 0 1.07-.74q-.01-1.99.78-20.8c.17-4.14-.3-8.55-.53-13.02-.38-7.5-1.83-15.18-2.04-22.74q-.41-15.78-.66-18c-1.51-13.64-.91-26.86.4-41.78.41-4.59.29-10.02.7-13.96q1.41-13.64 2.25-23.9c.13-1.69.6-3.5.93-5.27a1.1 1.09 4.4 0 0-1.12-1.3M519.64 598.32q.06-7.33 7.13-10.61.74-.34 6.29-.62a8.92 8.42 36.3 0 0 1.38-.17q10.96-2.18 16.68-3.59 8.84-2.18 14.5-2.05c7.5.17 28.42 2.21 30.14 10.58a1.66 1.66 0 0 0 1.97 1.29l4.42-.96a1.74 1.74 0 0 0 1.14-2.59c-3.76-6.37-14.65-9.45-21.95-11.35-9.17-2.38-19.08-2.46-27.78-1.09q-14.13 2.22-26.76 6.13c-3.3 1.02-13.24 6.75-12.33 11.69q.57 3.07 4.29 4.02a.71.71 0 0 0 .88-.68m-4.86 6.18q.1 22.76.42 31.36c.61 16.36 3.75 31.9 12.48 45.74 5.83 9.24 15.66 16.78 26.62 17.24q6.71.29 19.5-.21 2.53-.1 8.03-1.55c8.07-2.12 14.56-3.73 17.83-12.33.89-2.33 2.53-5.64 3.14-7.73q2.02-6.86 4.1-13.56.75-2.43 2.92-3.26a1.84 1.8 43 0 1 1.24-.03q4.61 1.54 5.72 1.77c9.74 2.06 19.03-3.2 23.25-11.88 4.65-9.55 7.02-23.46 1.5-32.92-4.68-8.04-17.23-8.87-24.41-4.95-3.54 1.94-6.47 3.36-9.31.64-2.46-2.35-1.77-11.02-1.77-14.6a.49.49 0 0 0-.72-.43q-5.63 2.97-13.96 5.78c-15.92 5.36-32.4 5.84-49.38 6.33-10.33.3-18.7-1.16-26.98-5.54a.15.15 0 0 0-.22.13m10.06 85.52c-7.63-9.78-12.09-23.26-14.28-35.48a.86.85-.9 0 0-.72-.69q-21.89-3.25-44.12-7.53c-2.92-.57-8.64-2.19-9.32-5.1q-.91-3.89 3.21-4.28 7.65-.71 14 1.23 2.08.64 5.01 1.22c5.77 1.13 18.63 4.85 30.23 6.81a.48.48 0 0 0 .56-.5l-.39-10.24a.76.75 8.6 0 0-.51-.68q-1.57-.55-5.51-1.24-6.76-1.2-13.51-2.59c-3.85-.79-8.26-.91-12.17-2.22a1.91 1.7-29.8 0 0-.33-.07l-16.03-1.84a12.1 12.02-48.8 0 0-4.35.3l-5.13 1.33a3.61 3.47-67.9 0 0-1.12.5q-7.38 5.02-13.94 7.97-18.71 8.42-33.86 16.09c-13.82 7-27.07 12.43-41.28 19.6q-5.33 2.69-12.38 5.87c-6.4 2.88-13.46 6.56-20.85 9.67-6.58 2.77-14.26 5.1-19.23 8.84q-4.88 3.68-8 8.87a.64.64 0 0 0 .46.96q4.22.62 7.92 1.97c17.19 6.27 32.9 11.36 52.15 16.3q97.94 25.14 197.59 51.65 6.19 1.65 32.41 8.9 31.03 8.58 61.65 15.12 7.27 1.55 13.23 2.53c1.77.3 3.35 1.05 4.76 1.32a.91.9-64.1 0 0 .88-.31q3.73-4.6 5.25-5.93a339 339 0 0 1 31.22-24.32c10.8-7.44 21.98-14.83 32.62-22.81 7.55-5.67 13.12-10.07 20.73-15.35q11.08-7.68 18.72-13.77c4.42-3.53 9.4-6.57 14.43-10.26q3.93-2.89 8.24-7.74 3.1-3.49 2.27-7.44a1.82 1.78 17 0 0-.51-.93q-1.6-1.52-3.61-2.17c-9.9-3.2-19.25-6-30.18-7.45-10.79-1.42-16.08-1.83-25.31-3.59q-2.96-.56-16.98-2.4c-12.14-1.6-26.66-4.27-40.15-7.47q-23.73-5.64-44.78-9.77-1.1-.21-3.27-1.25a1.26 1.24-45.5 0 0-1.12.02q-.5.26-5.35 3.68-8.87 6.26-21.06 2.54-.81-.25-1.14 2.56a.6.6 0 0 0 .52.66c3.4.41 9.02.44 13.27 1.29 10.77 2.15 21.4 3.54 32.64 5.79q14.04 2.82 43.94 8.56 25.27 4.86 57.07 13.65c3.74 1.03 10.74 3.08 11.68 5.7 2.2 6.19-6.91 5.73-10.61 5.41q-3.5-.31-7.6-1.68c-15.49-5.17-30.28-9.91-44.47-12.65q-20.21-3.91-54.72-9.5c-9.06-1.46-17.55-3.73-26.19-5.86q-7.1-1.74-17.77-1.68a.78.78 0 0 0-.73.5c-2.89 7.66-5.91 14.09-13.03 18.73-2.72 1.77-5.48 2.46-8.1 3.41a.35.35 0 0 0 .06.67c21.32 3.58 33.63 5.83 49.23 8.14q27.5 4.07 66.63 10.29c5.46.87 10.4 2.19 15.15 2.66 6.46.65 15.53 4.39 14.86 11.57-.34 3.59-5.54 5.19-8.48 5.43a2.8 2.65-39 0 1-.9-.07c-3.02-.74-6.94-.88-10.72-2.1q-21.74-7.02-43.16-10.99-34.9-6.45-78.89-13.7-11.4-1.87-16.01-2.76-13.33-2.55-16.06-2.64a2.8 2.72 59.9 0 1-1.28-.36c-2.97-1.66-7.46-1.79-10.78-2.55-18.09-4.1-35.78-8.62-52.88-12.46q-17.05-3.83-36.73-9.68c-8.99-2.67-20.69-4.77-27.8-6.78q-9.54-2.68-13.01-4.43c-3.36-1.69-4.08-6.72.79-7.24q4.31-.46 8.91.61c17.25 4 29.16 6.69 45.76 9.78q10.73 2 30.01 7.1 10.1 2.67 21.95 7.28a.35.34-8.1 0 0 .4-.53m-225.41 24c-.17 5.26.66 13.23.05 20.63-.43 5.3-.48 15.77-1.44 23.52-.81 6.55-.38 12.37 1.59 18 1.93 5.49 6.97 8.01 12.49 10.84 7.28 3.73 14.21 6.81 21.95 7.79 5 .63 8.75 1.8 13.71 2.05a9.95 9.88 54.7 0 1 2.41.42c2.1.64 4.14 1.27 6.55 1.39 3.25.15 6.11 1.28 9.39 2q28.53 6.28 59.24 13.97c14.31 3.59 23.15 5.3 36.99 8.33 3.68.81 7.24.51 10.58 1.82q1.6.63 5.88.81 4.38.18 8.3 1.48c2.13.71 4.96.45 6.64.85q1.74.41 9.97 2.01c7.94 1.55 15.78 5.69 22.63 8.05 16.29 5.61 34.73 9.04 53.93 12.75q20.66 3.99 51.87 13.08 17.96 5.23 24.91 6.85 7.18 1.68 13.6 2.33a1.18 1.18 0 0 0 1.3-1.2q-.37-17.59-1.01-26.99c-.81-12.03-.6-19.07-.71-32.26a2.48 2.48 0 0 0-1.61-2.31c-4.19-1.58-9.58-1.23-13.42-2.23q-1.47-.39-6.46-1.29-17.43-3.18-35.69-8.31-13.72-3.85-50.33-14.09c-17.13-4.79-41.68-10.76-53.6-13.97-35.2-9.47-54.37-14.29-90.31-23.87q-15.48-4.13-42.64-10.9-13.97-3.48-43.41-11.95-4.18-1.2-13.31-4.67-3.17-1.21-16.07-5.34-1.9-.61-3.41-.27a.72.72 0 0 0-.56.68m105.5 157.38q10.63-5.36 22.05-8.41 7.84-2.09 19.82-4.92 4.36-1.03 13.57-5.28 5.46-2.53 12.11-8.01 9.24-7.63 13.09-11.17a.6.6 0 0 0-.32-1.04q-9.15-1.19-19.46-2.63c-3.59-.5-5.23-1.16-9.27-2.46a1.88 1.88 0 0 0-2.07.64c-6.26 8.09-17.14 14.56-23.3 19.27q-14.8 11.32-26.4 23.76a.16.15-81.4 0 0 .18.25m-24.68-4.88a.49.49 0 0 0 .03-.86q-11.52-7-19.95-11.76-5.44-3.07-11.65-5.07a2.57 2.56 31 0 0-2.63.65q-6.83 6.99-15.64 10.38c-8 3.07-18.93 8.21-23.73 10.65a6.47 6.26 27 0 1-2.06.63q-5.85.75-8.66.01-1.59-.43-7.56-2.3c-4.01-1.26-9.3-5.38-12.66-9.54q-1.77-2.19-9.07-10.34-1.97-2.2-7.79-6.72c-5.94-4.62-12.3-5.59-18.69-2.07-9.93 5.46 8.52 19.07-6.22 24.27q-1.31.47-2.42.52-13.59.7-24.52-.59-3.7-.44-7.19.58a.82.82 0 0 0-.45 1.25q4.13 6.13 9.25 11.6c3.69 3.95 5.72 9.2 2.27 13.77-3.67 4.86-14.26-1.75-18.12-4.07-9.05-5.41-22.32-8.91-32.9-7.67q-1.58.19-2.22.77a2.04 1.88 50.1 0 0-.13 2.66c3.78 4.88 11.64 7.56 17.86 9.89 3.65 1.36 13.05 5.59 13.77 9.2.67 3.34-1.49 4.9-4.73 5.73-3.94 1.02-8.38 2.05-11.3 4.27q-.73.55-.94 2.13c-.25 1.77 2.06 2.72 3.35 2.72q4.92 0 8.06.61c5.81 1.12 8.66.77 14.71 1.1 10.61.57 19.15 4.07 31.02 8.07 8.23 2.78 17.14 4.83 25.91 3.52q17.12-2.56 29.88-13.72a6.58 6.54-10.3 0 0 1.8-2.58c2.49-6.48 5.1-12.15 12.73-13.27 5.33-.77 9.21 1.33 14.18 4.07q5.99 3.3 10.38 7.57a.62.62 0 0 0 .86.02c3.85-3.47 5.4-4.96 8.97-7.32q7.73-5.12 14.21-9.75 2.14-1.53 12.12-11.94c3.52-3.68 7.29-7.13 9.95-9.9 3.16-3.27 5.95-5.17 9.92-7.17m-46.23-17.54c-4.01-.59-7.16-1.37-11.05-1.37q-6.7.01-13.78 2.11c-7.28 2.15-8.22 7.85-10.42 14.22a.55.55 0 0 0 .43.72c2.04.32 4.34.29 6.51-.52q5.74-2.12 6.9-2.78 11.34-6.43 21.55-11.48a.48.48 0 0 0-.14-.9m16.53 53.13q3.32.82 8.16.66c3.21-.11 7.28.01 9.64-1.15q13.98-6.86 23.21-19.47a3.17 3.16 50.6 0 0 .31-3.23c-4.58-9.72-12.71-6.35-18.56-.61q-12.03 11.79-15.09 15.32c-2.3 2.65-5.44 4.82-7.97 7.44a.63.63 0 0 0 .3 1.04m78.49-7.84q-.25-.42-1.48-1.3c-6.38-4.55-13.36-4.24-20.61-2.68-15.7 3.38-35.86 16.16-31.08 35.34.99 3.96 4.52 5.55 7.38 2.1 5.29-6.38 9.97-11.77 15.73-16.31a16.24 16.22 16.2 0 1 4.74-2.6c7.2-2.5 11.75-3.65 16.71-6.75q5.09-3.19 8.38-6.27a1.24 1.23-36.8 0 0 .23-1.53m29.56 26.08q-3.65-9.6-9.8-16.86-2.29-2.72-8.86-6.53a.91.91 0 0 0-1.11.14q-9.1 9.05-20.09 14.8c-9.93 5.19-18.02 10.07-23.79 15.03q-12.86 11.04-16.61 13.63-7.17 4.94-16.34 5-5.37.03-10.74-3.25c-7.82-4.77-17.84-10.9-24.69-18.21-5.37-5.71-12.02-12.1-19.77-15.36-3.48-1.46-9.72-1.52-11.43 2.39-3.76 8.57 4.4 14.65 3.46 21.78a3.19 3.19 0 0 1-1.61 2.37q-4.12 2.31-9.51 1.58-10.09-1.36-19.86 1.86a1.64 1.64 0 0 0-.99 2.2c2.29 5.3 9.89 7.41 8.9 16.41-.47 4.38-4.08 5.63-7.79 5.43q-4.29-.24-14.07-1.52a18.01 18-43.3 0 0-3.49-.1q-.64.04-8.81 1.08c-4.77.61-8.17 2.17-11.65 4.78q-.42.32-.27.87.05.21.35.35 5.74 2.6 10.55 3.79 5.31 1.31 10.94 2.49 3.11.65 7.96.54c6.87-.17 9.72.01 19.03.16q.84.02 3.56.9c4.1 1.32 4.39 4.29 2.1 7.86q-1.38 2.14-7.25 9.45-1.35 1.69-1.48 3.55a1.15 1.15 0 0 0 1.06 1.23q1.74.13 3.63-.33c7.44-1.84 14.96-3.97 23.25-4.49 9-.56 18.5-.39 27.43 2.5q2.83.92 13.91 3.54 10.87 2.57 20.91-1.16 3.33-1.23 13.84-7.61c11.17-6.78 20.66-13.87 29.12-22.69 9.99-10.42 13.66-13.69 24.25-24.61 4.37-4.5 11.17-11.22 14.97-15.02q4.9-4.9 10.55-7.4a.45.45 0 0 0 .24-.57m-86.44 15.36c-4.3-6.66-7.52-16.24-5.76-24.16a.35.35 0 0 0-.36-.42c-5.38.38-10.49-.26-15.33-2.58l-5.52-2.66a.91.9 41.8 0 0-.91.05l-15.36 10.09a.51.51 0 0 0-.13.74q2.73 3.59 6.12 6.33 8.23 6.68 15.41 11.08 4.9 3 6.9 3.37 7.31 1.34 14.57-.82a.68.68 0 0 0 .37-1.02m-81.64-5.84a.37.37 0 0 0 .43-.5l-2.96-7.32a.28.28 0 0 0-.43-.12l-9.06 6.99a.22.21 22.6 0 0 .16.38q6.55-.67 11.86.57m134.26 32.05q5.94-1.13 11.16.48 2.31.71 6.56-.04a3.13 3.11-68.4 0 0 1.39-.61c6.33-4.85 9.97-7.93 14.34-13.19 4.85-5.85 5.3-12.67 2.25-19.53a1.16 1.15 61.5 0 0-1.68-.5q-1.82 1.18-5.86 4.01c-4.65 3.25-9.65 9.16-12.36 11.54q-1.13.98-6.44 7.54-4.53 5.6-9.56 9.88a.24.24 0 0 0 .2.42"/><path fill="#4C1D03" d="M650.1 70.71c7.51 2.33 6.6 11.62 1.42 15.8q-3.76 3.03-6.95 2.04-3.18-.98-4.57-5.61c-1.91-6.38 2.59-14.56 10.1-12.23M587.76 88.65c-4.16-.5-6.2-6.7-5.96-9.95q.62-8.56 9.5-7.78c11.43 1 6.09 18.87-3.54 17.73M790.87 163.82a.67.67 0 0 1 .6.73l-.2 2.07a3.69 1.41-84.4 0 1-1.76 3.54l-.22-.03a3.69 1.41-84.4 0 1-1.05-3.81l.21-2.07a.67.67 0 0 1 .73-.6z"/><rect width="2.84" height="8.12" x="-1.42" y="-4.06" fill="#4C1D03" rx="1.35" transform="rotate(-17.8 920.635 -2376.905)"/><ellipse fill="#4C1D03" rx="3.41" ry="1.41" transform="rotate(-63 543.978 -572.513)"/><path fill="#4C1D03" d="M779.59 272.73c-10.59-1.33-19.25-7.41-25.69-15.85q-3.24-4.25-6.29-11.78c-4.05-10.03-4.17-21.44-2.82-32.08q.34-2.67 2.23-8.59c3.79-11.82 11.93-21.56 22.58-27.02q4.89-2.51 12.39-2.81a3.2 3.2 0 0 1 .79.08l14.92 3.58a11.42 11.33 49.7 0 0 3.38.29q5.03-.33 6.64.29 2.56.98 5.01 1.68c10.28 2.93 14.61 11.5 18.37 20.69q1.93 4.68 2.35 7.32c.99 6.14 1.8 9.55 1.77 14.01q-.05 8.5-2.27 18.44c-.9 3.99-3.74 9.65-5.26 12.54q-6.05 11.47-18.52 15.16-3.96 1.18-7.35 1.17c-3.47-.01-6.27 1.24-9.84 1.63q-6.71.75-11.1 1.25a5.39 5.06-43.2 0 1-1.29 0m-2.753-91.46a2.04.37-175.2 0 0 2.002.539 2.04.37-175.2 0 0 2.064-.198 2.04.37-175.2 0 0-2.002-.54 2.04.37-175.2 0 0-2.064.198m12.053 5.71-18.14-2.97a2.67 2.62-54.8 0 0-1.74.32c-7.37 4.27-11.56 11.84-14.76 19.46q-3.05 7.27-3.75 12.92-2.37 19.09 7.59 35.41c2.66 4.36 6.01 7.47 9.82 10.7q.98.83 3.26 1.62a.63.62-36.1 0 0 .27.04l17.33-1.51a.28.28 0 0 0 .15-.49q-1.32-1.08-3.16-1.07-10.05.11-15.01.31-2.52.11-4.35-1.02a.5.5 0 0 1 .17-.92q7.79-1.35 17.35-1.33a.71.71 0 0 0 .56-1.14l-2.43-3.16a2.39 2.37-22.4 0 0-2.18-.9q-7.01.9-19.01.07a.65.64-66.8 0 1-.43-1.08l.33-.36a2.81 2.78 19.9 0 1 1.94-.9l15.79-.61a.95.95 0 0 0 .85-1.31l-1.3-3.21a1.34 1.33 78.9 0 0-1.24-.84h-19.42a1.03 1.03 0 0 1-.95-.64l-.15-.38a.84.84 0 0 1 .7-1.16L776 241a.41.41 0 0 0 .36-.5l-1.17-5.48a.63.62 83.6 0 0-.61-.49l-19.68-.21a.76.76 0 0 1-.64-1.17l.17-.33a1.49 1.48-77.3 0 1 1.27-.81l18.47-.72a.57.57 0 0 0 .55-.59l-.22-5.72a.57.56-.5 0 0-.56-.54c-10.05-.22-15.95.04-21.01-1.12a.84.83-54 0 1-.24-1.53q1.71-1.03 4.06-1.24 2.65-.24 17.43.08a.9.89-85.8 0 0 .91-.79l.64-5.58a.75.74-85.7 0 0-.71-.83c-3.91-.14-6.65.04-10-.6q-3.33-.64-9.42-1.01a1.23 1.23 0 0 1-1.15-1.17v-.41a.76.76 0 0 1 .76-.75h20.82a.91.91 0 0 0 .88-.69l1.32-5.52a.69.69 0 0 0-.56-.85q-7.86-1.33-16.35-2-1.76-.13-3.63-1.28a.64.64 0 0 1 .23-1.18c7.08-1.1 13.58.16 20.68 1.1a2.16 2.15-69.2 0 0 2.08-.94l2.01-3a1.21 1.21 0 0 0-.91-1.88c-5.39-.44-12.62-.52-17.36-2.78a.79.79 0 0 1-.04-1.4q.63-.34 1.37-.34 10.79.01 19.77 1.77a1.65 1.63 26.6 0 0 1.53-.5l2.09-2.28a.45.44-63.7 0 0-.25-.74m10.5 75.14c5.72.11 11.17.25 15.55-3.21q7.15-5.65 10.81-15.58c2.67-7.25 2.71-17.38 2.4-25.3-.39-9.93-5.32-29.03-16.87-31.57q-3.36-.73-8.17-.2c-13.49 1.49-20.49 19.74-21.52 31.01-1.51 16.53.67 34.59 16.08 44.34a3.29 3.2-27.7 0 0 1.72.51M697.703 178.01a22.18 19.66-56.9 0 1 4.356 29.316 22.18 19.66-56.9 0 1-28.582 7.845 22.18 19.66-56.9 0 1-4.356-29.317 22.18 19.66-56.9 0 1 28.582-7.845m-4.148 5.649a15.38 13.27-58.2 0 0-19.383 6.078 15.38 13.27-58.2 0 0 3.173 20.064 15.38 13.27-58.2 0 0 19.383-6.078 15.38 13.27-58.2 0 0-3.173-20.064M753.79 181.32a.48.48 0 0 1-.68-.05l-1.93-2.24a4.56 1.19 49.1 0 1-2.09-4.22l.12-.11a4.56 1.19 49.1 0 1 3.89 2.67l1.93 2.24a.48.48 0 0 1-.04.68zM528.94 181.73a7.71 7.65-46.9 0 1 3.24-.12c4.77.85 9.34.98 13.78 2.55 21.75 7.68 37.08 25.14 42.44 47.41q.65 2.7.78 5.47.84 17.77-8.35 33.09c-14.65 24.45-44.03 36.06-70.96 24.84-23.57-9.82-39.27-37.58-35.56-62.6 4.05-27.34 23.97-48.97 52.56-50.27q.75-.03 2.07-.37m-7.25 7.08q-31.6 6.79-39.44 36.91c-5.75 22.13 2.74 45.5 21.8 58.74q10.61 7.37 23.73 7.93c3.82.17 9.23.22 13.28-.69 23.51-5.27 40.33-25.2 41.02-49.45q.17-6.09-.95-10.95c-2.03-8.86-4.69-15.79-10.54-22.45q-5.4-6.15-10-9.88c-7.75-6.29-18.62-10.94-29.19-10.57q-9.33.33-9.71.41"/><path fill="#4C1D03" d="M686.45 185.4c1.73 2.3.36 9.86-.04 12.23a1.07 1.07 0 0 1-1.7.67c-3.28-2.49-1.82-9.56-.32-12.69a1.22 1.21-50.6 0 1 2.06-.21M805.11 222.76q-.56-6.41-1.21-9.1-.75-3.09-.51-7.32c.2-3.69-1.09-10.41 1.61-14.83q.29-.47.56-.55a2.26 2.22 77.3 0 1 2.85 1.84q1.72 11.37.16 23.59c-.39 3.04-.24 4.3-2.2 6.75a.71.71 0 0 1-1.26-.38"/><ellipse fill="#4C1D03" rx="3.98" ry="1.47" transform="rotate(213 399.171 -12.734)"/><rect width="3.8" height="10.92" x="-1.9" y="-5.46" fill="#4C1D03" rx="1.82" transform="rotate(-.1 113802.648 -303981.004)"/><rect width="2.26" height="9.2" x="-1.13" y="-4.6" fill="#4C1D03" rx="1.09" transform="rotate(-19.6 839.478 -1397.664)"/><rect width="2.42" height="9.24" x="-1.21" y="-4.62" fill="#4C1D03" rx="1.17" transform="rotate(25.4 -173.035 1308.534)"/><path fill="#4C1D03" d="M502.93 205.18a1.09 1.09 0 0 1 1.36-1.68q2.82 1.84 5.19 5.54a.97.96 6.3 0 1-1.5 1.2z"/><rect width="2.1" height="8.68" x="-1.05" y="-4.34" fill="#4C1D03" rx="1" transform="rotate(39.4 -11.835 878.388)"/><path fill="#4C1D03" d="M738.38 212.38a.8.8 0 0 1-.53 1.37c-2.07.1-6-.51-6.18-2.85a1.11 1.04 5.9 0 1 1.4-1.06q3.78 1 5.31 2.54M527.78 210.71c5.63-3.67 10.26 6.83 11.14 10.62.43 1.82 1.22 5.71 1.42 8.08.64 7.85 1.91 31.15-5.35 35.37-6.31 3.66-10.17-4.83-11.48-9.94-2.23-8.73-2.3-18.25-1.41-27.02.5-4.88 1.67-14.49 5.68-17.11m-.31 26.12c-.02 7 .66 13.92 2.99 20.14q.43 1.15 1.21 1.47a.6.6 0 0 0 .83-.45c1.28-7.02 2.18-14.19 2.21-20.99.02-7-.66-13.92-2.99-20.13q-.43-1.16-1.21-1.48a.6.6 0 0 0-.83.45c-1.28 7.02-2.18 14.19-2.21 20.99"/><ellipse fill="#4C1D03" rx="4.63" ry="1.31" transform="rotate(216.8 284.935 25.277)"/><path fill="#4C1D03" d="M567.53 214.34a.47.47 0 0 1-.11.65l-2.55 1.81a5.48 1.15-35.4 0 1-5.13 2.24l-.12-.16a5.48 1.15-35.4 0 1 3.8-4.11l2.55-1.82a.47.47 0 0 1 .66.11zM487.54 227.2a.21.21 0 0 1-.15-.26l.12-.41a3.43 2.03 16.1 0 1 3.86-1l2.42.7a3.43 2.03 16.1 0 1 2.73 2.9l-.11.41a.21.21 0 0 1-.26.14zM564.45 230.43a.12.12 0 0 1-.15-.08l-.01-.05a3.41 2.6-17.7 0 1 2.45-3.52l3.49-1.11a3.41 2.6-17.7 0 1 4.04 1.44l.02.06a.12.12 0 0 1-.08.15zM738.44 233.63a.45.45 0 0 1-.42.48l-2.91.18a4.54 1.03-3.6 0 1-4.59-.74l-.02-.28a4.54 1.03-3.6 0 1 4.47-1.31l2.9-.19a.45.45 0 0 1 .48.42z"/><rect width="11.68" height="3.78" x="-5.84" y="-1.89" fill="#4C1D03" rx="1.81" transform="rotate(2.7 -4815.055 12241.748)"/><rect width="11.82" height="3.56" x="-5.91" y="-1.78" fill="#4C1D03" rx="1.71" transform="rotate(-1.4 10083.794 -19962.603)"/><ellipse fill="#4C1D03" rx="4.97" ry="1.35" transform="rotate(-20.5 946.488 -1234.643)"/><ellipse fill="#4C1D03" rx="3.93" ry="1.56" transform="rotate(-33.8 789.982 -1092.227)"/><ellipse fill="#4C1D03" rx="4.52" ry="1.2" transform="rotate(-41.4 598.4 -528.232)"/><ellipse fill="#4C1D03" rx="4.22" ry="1.45" transform="rotate(-46 692.971 -751.393)"/><ellipse fill="#4C1D03" rx="3.6" ry="1.36" transform="rotate(-62.2 613.746 -494.943)"/><path fill="#4C1D03" d="M689.5 322.35q-2-3.39-.38-7.84 7.09-19.39 15.8-35.57.99-1.83 2.39-2.67a3.06 2.87 51.7 0 1 3.6.54c4.66 4.65-.12 12.45-2.1 17.35q-4.97 12.28-10.77 22.63-2.08 3.72-5.41 6.19a2.15 2.15 0 0 1-3.13-.63M410.22 279.75q5.21-3.75 13.79-3.63c5.84.09 13.02 1.58 11.54 8.97-.75 3.76-5.49 3.95-9.11 4.47a4.72 4.66-42.2 0 1-1.82-.08q-5.21-1.22-11.96-1.1a1.86 1.85 65.3 0 1-1.26-.47q-3.41-3.1-1.79-7.38a1.75 1.75 0 0 1 .61-.78M593.57 290.99c-2.44-1.19-2.84-3.4-2.59-5.75.29-2.74 2.68-5.12 5.02-6.37 3.18-1.7 8.02-1.21 11.07-2.38a3.09 3.07 41.4 0 1 1.86-.11q6.5 1.7 16.58 1.54 25.16-.39 32.73-.2c2.87.07 6.03 1.66 6.99 4.69 2.07 6.5-1.51 10.8-7.73 11.86q-12.11 2.07-23.32 1.36-8.37-.52-14.22-.65-10.21-.23-16.57-.55a7.7 7.42-33.8 0 1-1.85-.33q-4.46-1.39-7.97-3.11M458.81 278.37q7.12-.21 9.44-.16c7.75.16 8.03 8.36.47 9.59q-.71.12-9.61.38-8.91.27-9.62.2c-7.62-.78-7.83-8.99-.11-9.61q2.32-.19 9.43-.4M409.75 305.29c-3.76-1.16-7.01-5.76-3.08-8.92q4.13-3.33 10.07-3.83a1.88 1.85 55.2 0 1 1.01.19l1.57.78a2.33 2.2 60.6 0 0 .71.22q5.49.69 10.57 1.39c5.18.7 7.49 5.81 3.46 9.71-4.66 4.49-18.44 2.27-24.31.46M615.34 357.01c2.83.78 3.66 4.06 3.55 6.65q-.36 9.03-5.29 15.98c-2.69 3.79-8.59 8.15-13.39 6a2.02 1.85-75.2 0 1-1.07-2.04q.26-2.28 2.29-3.67c2.8-1.92 4.19-3.14 5.5-6.61q2.15-5.69 2.42-9.61c.25-3.58 1.58-5.94 5.01-6.72a1.93 1.89 45.6 0 1 .98.02M589.21 401.02c.17 5.72-1.66 12.33-3.48 17.37q-1.58 4.37-5.19 8.46a7.77 7.76-64.2 0 1-7.33 2.55l-.5-.08a2.78 2.78 0 0 1-1.9-4.3l6.34-9.48a14.06 13.97 67.8 0 0 2.09-5.02c1.3-5.47 1.16-10.3 8.08-11.13a1.7 1.69 85.7 0 1 1.89 1.63M561.95 454.44a.83.82 58.1 0 1 1.09.26c3.71 5.43 5.57 11.72 7.31 18.77 1.46 5.89 1.48 11.4-4.4 14.23-4.52 2.16-9.65-1.85-11.7-5.72-1.91-3.61-.2-8.93 1.21-12.53q.2-.5 5.29-13.42.47-1.19 1.2-1.59M495.53 476.08c3.82 1.8 4.77 7.77 5.1 11.81q.66 7.95.5 16.75-.11 6.2.22 16.74.4 12.58.75 23.06c.27 7.96 1.57 15.48 1.09 23.14q-.16 2.61.22 16.33.23 8.4-.26 16.34c-.19 3.01-.65 10-4.02 11.34-7.91 3.15-7.33-17.75-7.37-22.59q-.24-30.45-.08-51.38c.07-9.9-1.08-20.05-1.71-30.37q-.69-11.32.22-24.48c.16-2.36 2.22-8.15 5.34-6.69M561.09 505.02a.54.54 0 0 1 .98.02q3.65 8.61 8.87 20.94 3.88 9.15-2.03 16.4c-2.95 3.63-9.3 4.58-13.22 1.82q-4.3-3.02-5.03-8.64-.13-.99 1.15-6.41.57-2.4 2.2-6.11c2.69-6.14 4.12-8.83 5.42-13.42q.78-2.74 1.66-4.6m5.51 23.77q-.13.05-.19.64-.37 3.68-1.44 5.63c-.92 1.67-2.57 2.89-3.63 4.01a1.14 1.14 0 0 0 .32 1.8l.05.02a2.35 2.34-50 0 0 2.47-.22q5.89-4.41 3.65-11.29a.94.93 70.3 0 0-1.23-.59M609.65 650.72q-1.8-3.9-1.39-8.5c.94-10.7 6.66-28.19 21.16-23.54q4.4 1.41 7.19 6.81c5.44 10.53-2.73 21.1-10.95 26.93-4.72 3.35-12.92 5.02-16.01-1.7m5.86-3.19a2.62 2.61 65.2 0 0 3.14 1.16c8.64-3.07 16.98-13.07 11.21-22.49q-.81-1.32-2.43-1.66c-10.92-2.26-12.84 16.01-12.07 22.39q.06.44.15.6M522.95 645.67c2.54.54 6.24 5.04 7.5 6.76a2.35 2.33 74 0 0 1.72.96c3.8.3 6.95 1.37 10.84 3.09q6.45 2.86 13.6 3.13 2.33.09 6.15-1 8.33-2.38 18.37.75c3.88 1.21 7.81-1.78 11.45-4.49 5.3-3.94 8.28 1.93 7.65 6.4q-1.11 7.85-4.15 18.54c-2.54 8.93-11.52 14.17-20.24 14.79q-9.5.67-12.92 1.32-7.02 1.35-9.39 1.02c-6.26-.86-10.47-3.77-15.79-7.63-6.35-4.58-11.6-14.6-13.6-21.21q-1.31-4.32-2.93-13.84-.68-3.94-.34-6.92a1.88 1.71-81 0 1 2.08-1.67M358.03 697.51c.4-7.51 10.67-7.37 16.37-6.64q3.38.44 10.54 3.33 20.27 8.16 41.82 13.51 22.3 5.53 42.93 8.88c4.83.78 8.86.98 13.21 1.92q13.71 2.97 16.31 4.03c7.14 2.93 17.66 7.46 26.9 9.83q13.16 3.38 31.87 6.43 6.86 1.12 10.82 2.63c5.24 1.99 14.26 5.34 22.36 7.78q14.16 4.27 29.98 9.13 10.51 3.23 39.39 10.4c4.99 1.24 15.09 1.88 16.56 8.48 1.44 6.5-4.7 7.41-9.52 6.93q-2.4-.25-13.8-4.07c-12.38-4.14-34.08-14.03-49.18-18.59q-24.76-7.47-35.57-9.76-22.42-4.75-31.32-6.71-11.07-2.45-19.33-3.87c-8.54-1.48-17.27-3.94-25.67-5.67q-14.23-2.93-38.49-8.11c-14.09-3.02-24.45-6.23-40.59-10.87-15.29-4.39-32.43-8.4-49.09-12.29q-3.45-.81-6.15-5.3a2.47 2.41-59.8 0 1-.35-1.4M368.45 988.04a1.21 1.21 0 0 1 .33 2.02q-4.96 4.34-12 3.61-3.82-.4-4.9-3.75a1.56 1.56 0 0 1 .83-1.89c2.75-1.3 5.47.22 8.02 1.12a3.92 3.89 49.7 0 0 1.96.17q2.01-.33 4.48-1.14.9-.29 1.28-.14"/></svg>